<svg xmlns="http://www.w3.org/2000/svg" viewBox="0 0 24 24" width="24" height="24" xmlns:c2pa="http://c2pa.org/manifest"><metadata><c2pa:manifest>AAAWgmp1bWIAAAAeanVtZGMycGEAEQAQgAAAqgA4m3EDYzJwYQAAABZcanVtYgAAAEdqdW1kYzJtYQARABCAAACqADibcQN1cm46YzJwYTpiYzk0MzRmZC03Y2EzLTRlMjYtOWM4ZS0yN2MxYjkyNTJjZWIAAAADl2p1bWIAAAApanVtZGMyYXMAEQAQgAAAqgA4m3EDYzJwYS5hc3NlcnRpb25zAAAAALxqdW1iAAAARGp1bWRjYm9yABEAEIAAAKoAOJtxE2MycGEuaW5ncmVkaWVudC52MwAAAAAYYzJzaGbleRV2DbAYJ7M18zhJoBkAAABwY2JvcqNpZGM6Zm9ybWF0bWltYWdlL3N2Zyt4bWxqaW5zdGFuY2VJRHgseG1wOmlpZDplMDIyYmIzNy01NGQ2LTRmODEtYjg3ZS0zNmFhYWQ1ZDZkYmFscmVsYXRpb25zaGlwaHBhcmVudE9mAAAB4mp1bWIAAABBanVtZGNib3IAEQAQgAAAqgA4m3ETYzJwYS5hY3Rpb25zLnYyAAAAABhjMnNocXW7aTSMq7YtkRsW1W8nnwAAAZljYm9yomdhY3Rpb25zgqJmYWN0aW9ua2MycGEub3BlbmVkanBhcmFtZXRlcnOha2luZ3JlZGllbnRzgaJjdXJseC1zZWxmI2p1bWJmPWMycGEuYXNzZXJ0aW9ucy9jMnBhLmluZ3JlZGllbnQudjNkaGFzaFggshH8LTkmpv1Dh8FEoTSgLvtRuKxCgNpYid4qulKzHAykZmFjdGlvbngdY29tLmFudGhyb3BpYy5jbGF1ZGUucHJvdmlkZWRqcGFyYW1ldGVyc6F4H2NvbS5hbnRocm9waWMub3JpZ2luLWNvbmZpZGVuY2VndW5rbm93bmtkZXNjcmlwdGlvbnhmQ2xhdWRlIHByb3ZpZGVkIHRoaXMgZmlsZSBhdCB0aGUgcmVxdWVzdCBvZiBhIHVzZXIgYW5kIG1heSBoYXZlIGNyZWF0ZWQgb3IgbW9kaWZpZWQgdGhlIGZpbGUgY29udGVudHMubXNvZnR3YXJlQWdlbnShZG5hbWVmQ2xhdWRlcmFsbEFjdGlvbnNJbmNsdWRlZPUAAADIanVtYgAAAEBqdW1kY2JvcgARABCAAACqADibcRNjMnBhLmhhc2guZGF0YQAAAAAYYzJzaASKztV+nBYKIiUqCQRdeK0AAACAY2JvcqVjYWxnZnNoYTI1NmNwYWRNAAAAAAAAAAAAAAAAAGRoYXNoWCA+WN2ZPfVkRAaDpbDXg/B87aWFw5G6JBzBfVacECnEfmRuYW1lbmp1bWJmIG1hbmlmZXN0amV4Y2x1c2lvbnOBomVzdGFydBiSZmxlbmd0aBkeBAAAAj5qdW1iAAAAJ2p1bWRjMmNsABEAEIAAAKoAOJtxA2MycGEuY2xhaW0udjIAAAACD2Nib3KlY2FsZ2ZzaGEyNTZpc2lnbmF0dXJleE1zZWxmI2p1bWJmPS9jMnBhL3VybjpjMnBhOmJjOTQzNGZkLTdjYTMtNGUyNi05YzhlLTI3YzFiOTI1MmNlYi9jMnBhLnNpZ25hdHVyZWppbnN0YW5jZUlEeCx4bXA6aWlkOmI1OTM4MjkzLWQ1YTAtNGY0Ny04ZTI0LTBiYzlkMDhlNzkyMnJjcmVhdGVkX2Fzc2VydGlvbnODomN1cmx4LXNlbGYjanVtYmY9YzJwYS5hc3NlcnRpb25zL2MycGEuaW5ncmVkaWVudC52M2RoYXNoWCCyEfwtOSam/UOHwUShNKAu+1G4rEKA2liJ3iq6UrMcDKJjdXJseCpzZWxmI2p1bWJmPWMycGEuYXNzZXJ0aW9ucy9jMnBhLmFjdGlvbnMudjJkaGFzaFgg3wAxMjBwwgMBOhrhPdMUWH181uWVxM7rVLGTKQMzB5WiY3VybHgpc2VsZiNqdW1iZj1jMnBhLmFzc2VydGlvbnMvYzJwYS5oYXNoLmRhdGFkaGFzaFggKbOZtvGDgJgfvFonU8Ccf4g7EvHZ+53cXC++28p111d0Y2xhaW1fZ2VuZXJhdG9yX2luZm+jZG5hbWVvQW50aHJvcGljIEZpbGVzZ3ZlcnNpb25lMS4wLjBrc3BlY1ZlcnNpb25lMi40LjAAABA4anVtYgAAAChqdW1kYzJjcwARABCAAACqADibcQNjMnBhLnNpZ25hdHVyZQAAABAIY2JvctKEWQISogEmGCFZAgowggIGMIIBjaADAgECAhRA5aAK7sI50L64g/oGQgU9Z1UTADAKBggqhkjOPQQDAzBJMRcwFQYDVQQKEw5BbnRocm9waWMsIFBCQzEuMCwGA1UEAxMlQW50aHJvcGljIENvbnRlbnQgQ3JlZGVudGlhbHMgUm9vdCBDQTAeFw0yNjA4MDcxODQzNTZaFw0yODA4MDYxOTQzNTZaMEQxFzAVBgNVBAoTDkFudGhyb3BpYywgUEJDMSkwJwYDVQQDEyBBbnRocm9waWMgQ2xhdWRlIENvbnRlbnQgU2lnbmluZzBZMBMGByqGSM49AgEGCCqGSM49AwEHA0IABJh6CmvLUBgFFNU0vUKlOVtE6djd17L5SuwX0LemFisBM3dkd/3cyjxFA3Qo5S46fX0/ihY0VZ7mfb9KF703t5OjWDBWMA4GA1UdDwEB/wQEAwIHgDAVBgNVHSUEDjAMBgorBgEEAYPoXgIBMAwGA1UdEwEB/wQCMAAwHwYDVR0jBBgwFoAUzlHiBIFOZFsj+OPEz5o+nMHXXMIwCgYIKoZIzj0EAwMDZwAwZAIwMXMdFJ4BetLLVY7ORuE9noqbbAZOZn/aArXyTwFAZfKrPzxF2vPoJNf1+UCdg1XGAjBwX1zd9WGqYkqmL5SFqw1QySjr1zJfpJM9+1rdDwSPLMOPOjKuiXjoU/pUUeG9RwmhY3BhZFkNngAAAAAAAAAAAAAAAAAAAAAAAAAAAAAAAAAAAAAAAAAAAAAAAAAAAAAAAAAAAAAAAAAAAAAAAAAAAAAAAAAAAAAAAAAAAAAAAAAAAAAAAAAAAAAAAAAAAAAAAAAAAAAAAAAAAAAAAAAAAAAAAAAAAAAAAAAAAAAAAAAAAAAAAAAAAAAAAAAAAAAAAAAAAAAAAAAAAAAAAAAAAAAAAAAAAAAAAAAAAAAAAAAAAAAAAAAAAAAAAAAAAAAAAAAAAAAAAAAAAAAAAAAAAAAAAAAAAAAAAAAAAAAAAAAAAAAAAAAAAAAAAAAAAAAAAAAAAAAAAAAAAAAAAAAAAAAAAAAAAAAAAAAAAAAAAAAAAAAAAAAAAAAAAAAAAAAAAAAAAAAAAAAAAAAAAAAAAAAAAAAAAAAAAAAAAAAAAAAAAAAAAAAAAAAAAAAAAAAAAAAAAAAAAAAAAAAAAAAAAAAAAAAAAAAAAAAAAAAAAAAAAAAAAAAAAAAAAAAAAAAAAAAAAAAAAAAAAAAAAAAAAAAAAAAAAAAAAAAAAAAAAAAAAAAAAAAAAAAAAAAAAAAAAAAAAAAAAAAAAAAAAAAAAAAAAAAAAAAAAAAAAAAAAAAAAAAAAAAAAAAAAAAAAAAAAAAAAAAAAAAAAAAAAAAAAAAAAAAAAAAAAAAAAAAAAAAAAAAAAAAAAAAAAAAAAAAAAAAAAAAAAAAAAAAAAAAAAAAAAAAAAAAAAAAAAAAAAAAAAAAAAAAAAAAAAAAAAAAAAAAAAAAAAAAAAAAAAAAAAAAAAAAAAAAAAAAAAAAAAAAAAAAAAAAAAAAAAAAAAAAAAAAAAAAAAAAAAAAAAAAAAAAAAAAAAAAAAAAAAAAAAAAAAAAAAAAAAAAAAAAAAAAAAAAAAAAAAAAAAAAAAAAAAAAAAAAAAAAAAAAAAAAAAAAAAAAAAAAAAAAAAAAAAAAAAAAAAAAAAAAAAAAAAAAAAAAAAAAAAAAAAAAAAAAAAAAAAAAAAAAAAAAAAAAAAAAAAAAAAAAAAAAAAAAAAAAAAAAAAAAAAAAAAAAAAAAAAAAAAAAAAAAAAAAAAAAAAAAAAAAAAAAAAAAAAAAAAAAAAAAAAAAAAAAAAAAAAAAAAAAAAAAAAAAAAAAAAAAAAAAAAAAAAAAAAAAAAAAAAAAAAAAAAAAAAAAAAAAAAAAAAAAAAAAAAAAAAAAAAAAAAAAAAAAAAAAAAAAAAAAAAAAAAAAAAAAAAAAAAAAAAAAAAAAAAAAAAAAAAAAAAAAAAAAAAAAAAAAAAAAAAAAAAAAAAAAAAAAAAAAAAAAAAAAAAAAAAAAAAAAAAAAAAAAAAAAAAAAAAAAAAAAAAAAAAAAAAAAAAAAAAAAAAAAAAAAAAAAAAAAAAAAAAAAAAAAAAAAAAAAAAAAAAAAAAAAAAAAAAAAAAAAAAAAAAAAAAAAAAAAAAAAAAAAAAAAAAAAAAAAAAAAAAAAAAAAAAAAAAAAAAAAAAAAAAAAAAAAAAAAAAAAAAAAAAAAAAAAAAAAAAAAAAAAAAAAAAAAAAAAAAAAAAAAAAAAAAAAAAAAAAAAAAAAAAAAAAAAAAAAAAAAAAAAAAAAAAAAAAAAAAAAAAAAAAAAAAAAAAAAAAAAAAAAAAAAAAAAAAAAAAAAAAAAAAAAAAAAAAAAAAAAAAAAAAAAAAAAAAAAAAAAAAAAAAAAAAAAAAAAAAAAAAAAAAAAAAAAAAAAAAAAAAAAAAAAAAAAAAAAAAAAAAAAAAAAAAAAAAAAAAAAAAAAAAAAAAAAAAAAAAAAAAAAAAAAAAAAAAAAAAAAAAAAAAAAAAAAAAAAAAAAAAAAAAAAAAAAAAAAAAAAAAAAAAAAAAAAAAAAAAAAAAAAAAAAAAAAAAAAAAAAAAAAAAAAAAAAAAAAAAAAAAAAAAAAAAAAAAAAAAAAAAAAAAAAAAAAAAAAAAAAAAAAAAAAAAAAAAAAAAAAAAAAAAAAAAAAAAAAAAAAAAAAAAAAAAAAAAAAAAAAAAAAAAAAAAAAAAAAAAAAAAAAAAAAAAAAAAAAAAAAAAAAAAAAAAAAAAAAAAAAAAAAAAAAAAAAAAAAAAAAAAAAAAAAAAAAAAAAAAAAAAAAAAAAAAAAAAAAAAAAAAAAAAAAAAAAAAAAAAAAAAAAAAAAAAAAAAAAAAAAAAAAAAAAAAAAAAAAAAAAAAAAAAAAAAAAAAAAAAAAAAAAAAAAAAAAAAAAAAAAAAAAAAAAAAAAAAAAAAAAAAAAAAAAAAAAAAAAAAAAAAAAAAAAAAAAAAAAAAAAAAAAAAAAAAAAAAAAAAAAAAAAAAAAAAAAAAAAAAAAAAAAAAAAAAAAAAAAAAAAAAAAAAAAAAAAAAAAAAAAAAAAAAAAAAAAAAAAAAAAAAAAAAAAAAAAAAAAAAAAAAAAAAAAAAAAAAAAAAAAAAAAAAAAAAAAAAAAAAAAAAAAAAAAAAAAAAAAAAAAAAAAAAAAAAAAAAAAAAAAAAAAAAAAAAAAAAAAAAAAAAAAAAAAAAAAAAAAAAAAAAAAAAAAAAAAAAAAAAAAAAAAAAAAAAAAAAAAAAAAAAAAAAAAAAAAAAAAAAAAAAAAAAAAAAAAAAAAAAAAAAAAAAAAAAAAAAAAAAAAAAAAAAAAAAAAAAAAAAAAAAAAAAAAAAAAAAAAAAAAAAAAAAAAAAAAAAAAAAAAAAAAAAAAAAAAAAAAAAAAAAAAAAAAAAAAAAAAAAAAAAAAAAAAAAAAAAAAAAAAAAAAAAAAAAAAAAAAAAAAAAAAAAAAAAAAAAAAAAAAAAAAAAAAAAAAAAAAAAAAAAAAAAAAAAAAAAAAAAAAAAAAAAAAAAAAAAAAAAAAAAAAAAAAAAAAAAAAAAAAAAAAAAAAAAAAAAAAAAAAAAAAAAAAAAAAAAAAAAAAAAAAAAAAAAAAAAAAAAAAAAAAAAAAAAAAAAAAAAAAAAAAAAAAAAAAAAAAAAAAAAAAAAAAAAAAAAAAAAAAAAAAAAAAAAAAAAAAAAAAAAAAAAAAAAAAAAAAAAAAAAAAAAAAAAAAAAAAAAAAAAAAAAAAAAAAAAAAAAAAAAAAAAAAAAAAAAAAAAAAAAAAAAAAAAAAAAAAAAAAAAAAAAAAAAAAAAAAAAAAAAAAAAAAAAAAAAAAAAAAAAAAAAAAAAAAAAAAAAAAAAAAAAAAAAAAAAAAAAAAAAAAAAAAAAAAAAAAAAAAAAAAAAAAAAAAAAAAAAAAAAAAAAAAAAAAAAAAAAAAAAAAAAAAAAAAAAAAAAAAAAAAAAAAAAAAAAAAAAAAAAAAAAAAAAAAAAAAAAAAAAAAAAAAAAAAAAAAAAAAAAAAAAAAAAAAAAAAAAAAAAAAAAAAAAAAAAAAAAAAAAAAAAAAAAAAAAAAAAAAAAAAAAAAAAAAAAAAAAAAAAAAAAAAAAAAAAAAAAAAAAAAAAAAAAAAAAAAAAAAAAAAAAAAAAAAAAAAAAAAAAAAAAAAAAAAAAAAAAAAAAAAAAAAAAAAAAAAAAAAAAAAAAAAAAAAAAAAAAAAAAAAAAAAAAAAAAAAAAAAAAAAAAAAAAAAAAAAAAAAAAAAAAAAAAAAAAAAAAAAAAAAAAAAAAAAAAAAAAAAAAAAAAAAAAAAAAAAAAAAAAAAAAAAAAAAAAAAAAAAAAAAAAAAAAAAAAAAAAAAAAAAAAAAAAAAAAAAAAAAAAAAAAAAAAAAAAAAAAAAAAAAAAAAAAAAAAAAAAAAAAAAAAAAAAAAAAAAAAAAAAAAAAAAAAAAAAAAAAAAAAAAAAAAAAAAAAAAAAAAAAAAAAAAAAAAAAAAAAAAAAAAAAAAAAAAAAAAAAAAAAAAAAAAAAAAAAAAAAAAAAAAAAAAAAAAAAAAAAAAAAAAAAAAAAAAAAAAAAAAAAAAAAAAAAAAAAAAAAAAAAAAAAAAAAAAAAAAAAAAAAAAAAAAAAAAAAAAAAAAAAAAAAAAAAAAAAAAAAAAAAAAAAAAAAAAAAAAAAAAAAAAAAAAAAAAAAAAAAAAAAAAAAAAAAAAAAAAAAAAAAAAAAAAAAAAAAAAAAAAAAAAAAAAAAAAAAAAAAAAAAAAAAAAAAAAAAAAAAAAAAAAAAAAAAAAAAAAAAAAAAAAAAAAAAAAAAAAAAAAAAAAAAAAAAAAAAAAAAAAAAAAAAAAAAAAAAAAAAAAAAAAAAAAAAAAAAAAAAAAAAAAAAAAAAAAAAAAAAAAAAAAAAAAAAAAAAAAAAAAAAAAAAAAAAAAAAAAAAAAAAAAAAAAAAAAAAAAAAAAAAAAAAAAAAAAAAAAAAAAAAAAAAAAAAAAAAAAAAAAAAAAAAAAAAAAAAAAAAAAAAAAAAAAAAAAAAAAAAAAAAAAAAAAAAAAAAAAAAAAAAAAAAAAAAAAAAAAAAAAAAAAAAAAAAAAAAAAAAAAAAAAAAAAAAAAAAAAAAAAAAAAAAAAAAAAAAAAAAAAAAAAAAAAAAAAAAAAAAAAAAAAAAAAAAAAAAAAAAAAAAAAAAAAAAAAAAAAAAAAAAAAAAAAAAAAAAAAAAAAAAAAAAAAAAAAAAAAAAAAAAAAAAAAAAAAAAAAAAAAAAAAAAAAAAAAAAAAAAAAAAAAAAAAAAAAAAAAAAAAAAAAAAAAAAAAAAAAAAAAAAAAAAAAAAAAAAAAAAAAAAPZYQIKajQnEdS6gf5vlvmgYN4DYV1cWus5BhzB4CB+9G0apA6T6fJOO76f9DCAZ62lUfhGnQGcCah/MtPyk/ybQn/w=</c2pa:manifest></metadata><path fill="currentColor" d="m 4.28,20.66 c 0.15,0.13 0.34,0.25 0.56,0.35 c -0.07,0.14 -0.17,0.29 -0.33,0.42 c -0.12,0.10 -0.26,0.19 -0.41,0.25 c -0.08,0.03 -0.12,0.12 -0.09,0.20 c 0.02,0.06 0.08,0.10 0.15,0.10 c 0.01,0 0.03,-0.00 0.05,-0.01 c 0.19,-0.07 0.36,-0.17 0.51,-0.30 c 0.20,-0.17 0.34,-0.37 0.43,-0.56 c 0.21,0.04 0.55,0.09 0.96,0.02 c 0.63,-0.10 1.11,-0.53 1.41,-0.87 c 0.65,-0.75 0.96,-1.43 0.96,-1.44 c 0.25,-0.59 0.72,-1.34 1.37,-2.14 c -0.36,-1.05 -0.26,-1.93 0.28,-2.48 c 0.06,-0.06 0.12,-0.12 0.18,-0.18 c -0.00,-0.06 -0.01,-0.13 -0.01,-0.20 c -1.23,1.16 -2.65,2.14 -4.18,2.87 c -0.10,0.05 -0.23,0.10 -0.38,0.16 c -0.64,0.25 -1.51,0.61 -1.88,1.42 c -0.14,0.33 -0.22,0.75 -0.18,1.17 c -0.22,0.07 -0.43,0.18 -0.63,0.31 c -0.27,0.18 -0.50,0.41 -0.69,0.69 c -0.05,0.07 -0.03,0.17 0.04,0.22 c 0.02,0.01 0.06,0.02 0.09,0.02 c 0.05,0 0.10,-0.02 0.13,-0.07 c 0.16,-0.23 0.36,-0.44 0.60,-0.60 c 0.15,-0.10 0.32,-0.19 0.50,-0.26 c 0.05,0.23 0.15,0.45 0.29,0.64 c -0.14,0.23 -0.34,0.49 -0.62,0.73 c -0.28,0.24 -0.61,0.42 -0.97,0.54 c -0.08,0.02 -0.13,0.12 -0.10,0.20 c 0.02,0.06 0.08,0.11 0.15,0.11 c 0.01,0 0.03,-0.00 0.05,-0.00 c 0.39,-0.13 0.75,-0.33 1.07,-0.60 c 0.27,-0.23 0.48,-0.48 0.63,-0.72 z"/><path fill="currentColor" d="m 14.95,10.14 c 0.25,-0.42 0.46,-0.84 0.65,-1.28 c 0.24,-0.57 0.71,-1.64 0.81,-3.13 c 0.05,-0.88 -0.02,-1.76 -0.23,-2.62 c -0.09,-0.13 -0.29,-0.35 -0.61,-0.43 c -0.11,-0.02 -0.23,-0.03 -0.36,-0.02 c -0.00,2.87 -0.86,5.78 -2.42,8.22 c -0.59,0.93 -1.30,1.81 -2.09,2.60 c -0.00,0.07 -0.01,0.15 -0.01,0.23 c 1.08,-1.03 2.21,-2.02 3.38,-2.93 c 0.09,-0.07 0.42,-0.32 0.90,-0.62 z"/><path fill="currentColor" d="m 10.12,16.38 c 1.13,-1.34 2.64,-2.76 4.01,-3.73 c 1.38,-0.99 2.95,-1.77 4.68,-2.33 c 0.03,-0.24 0.06,-0.48 0.07,-0.74 c 0.00,-0.08 0.07,-0.15 0.17,-0.15 c 0.08,0.00 0.15,0.08 0.15,0.17 c -0.01,0.29 -0.04,0.58 -0.09,0.87 c -0.07,0.43 -0.18,0.86 -0.32,1.28 c -0.33,0.93 -0.86,1.81 -1.55,2.56 c 0.40,0.07 0.80,0.19 1.17,0.36 c 0.91,-1.25 1.48,-2.79 1.60,-4.34 c 0.04,-0.63 -0.06,-1.05 -0.34,-1.27 c -0.33,-0.26 -0.82,-0.19 -1.22,-0.11 c -1.30,0.29 -2.51,0.95 -3.30,1.45 c -0.00,0.00 -0.00,0.00 -0.00,0.00 c -0.00,0.00 -0.00,0.00 -0.00,0.00 c -0.48,0.30 -0.81,0.55 -0.90,0.62 c -1.34,1.04 -2.63,2.18 -3.85,3.39 c -0.54,0.54 -0.44,1.37 -0.26,1.96 z"/><path fill="currentColor" d="m 19.23,7.59 c -0.40,0.34 -0.78,0.71 -1.14,1.11 c 0.10,-0.02 0.20,-0.05 0.30,-0.07 c 0.31,-0.06 0.67,-0.11 1.01,-0.04 c 0.61,-0.27 1.28,-0.40 1.94,-0.36 c 0.06,-0.10 0.11,-0.20 0.17,-0.30 c 0.03,-0.06 0.07,-0.12 0.11,-0.18 c -0.79,-0.13 -1.60,-0.17 -2.40,-0.12 z"/><path fill="currentColor" d="m 18.21,4.05 c 0.04,-0.51 0.02,-1.04 -0.05,-1.57 c -0.21,-0.16 -0.43,-0.32 -0.64,-0.48 c -0.11,1.03 -0.37,2.06 -0.76,3.04 c 0.00,0.23 -0.00,0.46 -0.01,0.70 c -0.04,0.66 -0.15,1.24 -0.29,1.74 c 0.32,-0.26 0.67,-0.53 1.05,-0.80 c 0.40,-0.84 0.64,-1.72 0.71,-2.63 z"/><path fill="currentColor" d="m 12.09,11.28 c 0.82,-2.22 0.94,-4.68 0.33,-6.96 c -0.32,0.08 -0.65,0.16 -0.98,0.23 c 0.76,2.44 0.74,5.17 -0.04,7.63 c 0.24,-0.29 0.47,-0.59 0.69,-0.90 z"/><path fill="currentColor" d="m 16.27,8.06 c -0.13,0.38 -0.26,0.69 -0.36,0.92 c -0.11,0.27 -0.25,0.54 -0.39,0.81 c 0.56,-0.32 1.24,-0.66 1.99,-0.92 c 1.12,-1.36 2.55,-2.48 4.13,-3.26 c -0.08,-0.24 -0.11,-0.51 -0.09,-0.76 c -1.70,0.55 -3.84,1.98 -5.27,3.21 z"/></svg>