<svg xmlns="http://www.w3.org/2000/svg" viewBox="0 0 24 24" width="24" height="24" xmlns:c2pa="http://c2pa.org/manifest"><metadata><c2pa:manifest>AAAWgmp1bWIAAAAeanVtZGMycGEAEQAQgAAAqgA4m3EDYzJwYQAAABZcanVtYgAAAEdqdW1kYzJtYQARABCAAACqADibcQN1cm46YzJwYTo4ZTlmZmJlOC03ZGVkLTQ1ZWUtODhiMy04OGNhMmI5ZDYxMTkAAAADl2p1bWIAAAApanVtZGMyYXMAEQAQgAAAqgA4m3EDYzJwYS5hc3NlcnRpb25zAAAAALxqdW1iAAAARGp1bWRjYm9yABEAEIAAAKoAOJtxE2MycGEuaW5ncmVkaWVudC52MwAAAAAYYzJzaFU8ilW4BAJ9XoLcEIOohSsAAABwY2JvcqNpZGM6Zm9ybWF0bWltYWdlL3N2Zyt4bWxqaW5zdGFuY2VJRHgseG1wOmlpZDo5OGEyNzdhMS01ZjFkLTQwNjQtOWU0ZC1jNGQyOWYxY2Q5NmZscmVsYXRpb25zaGlwaHBhcmVudE9mAAAB4mp1bWIAAABBanVtZGNib3IAEQAQgAAAqgA4m3ETYzJwYS5hY3Rpb25zLnYyAAAAABhjMnNoq5mBzskZ6IDwciegNdXdiQAAAZljYm9yomdhY3Rpb25zgqJmYWN0aW9ua2MycGEub3BlbmVkanBhcmFtZXRlcnOha2luZ3JlZGllbnRzgaJjdXJseC1zZWxmI2p1bWJmPWMycGEuYXNzZXJ0aW9ucy9jMnBhLmluZ3JlZGllbnQudjNkaGFzaFggAe13HiFWW6BZhZOUFe8urdfo28fptePr1kDenVd9eoikZmFjdGlvbngdY29tLmFudGhyb3BpYy5jbGF1ZGUucHJvdmlkZWRqcGFyYW1ldGVyc6F4H2NvbS5hbnRocm9waWMub3JpZ2luLWNvbmZpZGVuY2VndW5rbm93bmtkZXNjcmlwdGlvbnhmQ2xhdWRlIHByb3ZpZGVkIHRoaXMgZmlsZSBhdCB0aGUgcmVxdWVzdCBvZiBhIHVzZXIgYW5kIG1heSBoYXZlIGNyZWF0ZWQgb3IgbW9kaWZpZWQgdGhlIGZpbGUgY29udGVudHMubXNvZnR3YXJlQWdlbnShZG5hbWVmQ2xhdWRlcmFsbEFjdGlvbnNJbmNsdWRlZPUAAADIanVtYgAAAEBqdW1kY2JvcgARABCAAACqADibcRNjMnBhLmhhc2guZGF0YQAAAAAYYzJzaATG5h8kXEm8m6enSeGSBxwAAACAY2JvcqVjYWxnZnNoYTI1NmNwYWRNAAAAAAAAAAAAAAAAAGRoYXNoWCBC1S1plJMnWBFhB+/e64z4KmExIMw6D5MePwRI0cOOnWRuYW1lbmp1bWJmIG1hbmlmZXN0amV4Y2x1c2lvbnOBomVzdGFydBiSZmxlbmd0aBkeBAAAAj5qdW1iAAAAJ2p1bWRjMmNsABEAEIAAAKoAOJtxA2MycGEuY2xhaW0udjIAAAACD2Nib3KlY2FsZ2ZzaGEyNTZpc2lnbmF0dXJleE1zZWxmI2p1bWJmPS9jMnBhL3VybjpjMnBhOjhlOWZmYmU4LTdkZWQtNDVlZS04OGIzLTg4Y2EyYjlkNjExOS9jMnBhLnNpZ25hdHVyZWppbnN0YW5jZUlEeCx4bXA6aWlkOmJiNmMzYzc4LTAzMjItNDIxMS05NDhmLTQ2YTkyZDI3ZDM2MXJjcmVhdGVkX2Fzc2VydGlvbnODomN1cmx4LXNlbGYjanVtYmY9YzJwYS5hc3NlcnRpb25zL2MycGEuaW5ncmVkaWVudC52M2RoYXNoWCAB7XceIVZboFmFk5QV7y6t1+jbx+m14+vWQN6dV316iKJjdXJseCpzZWxmI2p1bWJmPWMycGEuYXNzZXJ0aW9ucy9jMnBhLmFjdGlvbnMudjJkaGFzaFggsriuKJiuL4bWJHaIivGLfrDNer5WnCxf6x4faRv3maaiY3VybHgpc2VsZiNqdW1iZj1jMnBhLmFzc2VydGlvbnMvYzJwYS5oYXNoLmRhdGFkaGFzaFggcE+Cc74eDMT2UK3ix5UlwtUO7Whojs0IwUGalgrv6b90Y2xhaW1fZ2VuZXJhdG9yX2luZm+jZG5hbWVvQW50aHJvcGljIEZpbGVzZ3ZlcnNpb25lMS4wLjBrc3BlY1ZlcnNpb25lMi40LjAAABA4anVtYgAAAChqdW1kYzJjcwARABCAAACqADibcQNjMnBhLnNpZ25hdHVyZQAAABAIY2JvctKEWQISogEmGCFZAgowggIGMIIBjaADAgECAhRA5aAK7sI50L64g/oGQgU9Z1UTADAKBggqhkjOPQQDAzBJMRcwFQYDVQQKEw5BbnRocm9waWMsIFBCQzEuMCwGA1UEAxMlQW50aHJvcGljIENvbnRlbnQgQ3JlZGVudGlhbHMgUm9vdCBDQTAeFw0yNjA4MDcxODQzNTZaFw0yODA4MDYxOTQzNTZaMEQxFzAVBgNVBAoTDkFudGhyb3BpYywgUEJDMSkwJwYDVQQDEyBBbnRocm9waWMgQ2xhdWRlIENvbnRlbnQgU2lnbmluZzBZMBMGByqGSM49AgEGCCqGSM49AwEHA0IABJh6CmvLUBgFFNU0vUKlOVtE6djd17L5SuwX0LemFisBM3dkd/3cyjxFA3Qo5S46fX0/ihY0VZ7mfb9KF703t5OjWDBWMA4GA1UdDwEB/wQEAwIHgDAVBgNVHSUEDjAMBgorBgEEAYPoXgIBMAwGA1UdEwEB/wQCMAAwHwYDVR0jBBgwFoAUzlHiBIFOZFsj+OPEz5o+nMHXXMIwCgYIKoZIzj0EAwMDZwAwZAIwMXMdFJ4BetLLVY7ORuE9noqbbAZOZn/aArXyTwFAZfKrPzxF2vPoJNf1+UCdg1XGAjBwX1zd9WGqYkqmL5SFqw1QySjr1zJfpJM9+1rdDwSPLMOPOjKuiXjoU/pUUeG9RwmhY3BhZFkNngAAAAAAAAAAAAAAAAAAAAAAAAAAAAAAAAAAAAAAAAAAAAAAAAAAAAAAAAAAAAAAAAAAAAAAAAAAAAAAAAAAAAAAAAAAAAAAAAAAAAAAAAAAAAAAAAAAAAAAAAAAAAAAAAAAAAAAAAAAAAAAAAAAAAAAAAAAAAAAAAAAAAAAAAAAAAAAAAAAAAAAAAAAAAAAAAAAAAAAAAAAAAAAAAAAAAAAAAAAAAAAAAAAAAAAAAAAAAAAAAAAAAAAAAAAAAAAAAAAAAAAAAAAAAAAAAAAAAAAAAAAAAAAAAAAAAAAAAAAAAAAAAAAAAAAAAAAAAAAAAAAAAAAAAAAAAAAAAAAAAAAAAAAAAAAAAAAAAAAAAAAAAAAAAAAAAAAAAAAAAAAAAAAAAAAAAAAAAAAAAAAAAAAAAAAAAAAAAAAAAAAAAAAAAAAAAAAAAAAAAAAAAAAAAAAAAAAAAAAAAAAAAAAAAAAAAAAAAAAAAAAAAAAAAAAAAAAAAAAAAAAAAAAAAAAAAAAAAAAAAAAAAAAAAAAAAAAAAAAAAAAAAAAAAAAAAAAAAAAAAAAAAAAAAAAAAAAAAAAAAAAAAAAAAAAAAAAAAAAAAAAAAAAAAAAAAAAAAAAAAAAAAAAAAAAAAAAAAAAAAAAAAAAAAAAAAAAAAAAAAAAAAAAAAAAAAAAAAAAAAAAAAAAAAAAAAAAAAAAAAAAAAAAAAAAAAAAAAAAAAAAAAAAAAAAAAAAAAAAAAAAAAAAAAAAAAAAAAAAAAAAAAAAAAAAAAAAAAAAAAAAAAAAAAAAAAAAAAAAAAAAAAAAAAAAAAAAAAAAAAAAAAAAAAAAAAAAAAAAAAAAAAAAAAAAAAAAAAAAAAAAAAAAAAAAAAAAAAAAAAAAAAAAAAAAAAAAAAAAAAAAAAAAAAAAAAAAAAAAAAAAAAAAAAAAAAAAAAAAAAAAAAAAAAAAAAAAAAAAAAAAAAAAAAAAAAAAAAAAAAAAAAAAAAAAAAAAAAAAAAAAAAAAAAAAAAAAAAAAAAAAAAAAAAAAAAAAAAAAAAAAAAAAAAAAAAAAAAAAAAAAAAAAAAAAAAAAAAAAAAAAAAAAAAAAAAAAAAAAAAAAAAAAAAAAAAAAAAAAAAAAAAAAAAAAAAAAAAAAAAAAAAAAAAAAAAAAAAAAAAAAAAAAAAAAAAAAAAAAAAAAAAAAAAAAAAAAAAAAAAAAAAAAAAAAAAAAAAAAAAAAAAAAAAAAAAAAAAAAAAAAAAAAAAAAAAAAAAAAAAAAAAAAAAAAAAAAAAAAAAAAAAAAAAAAAAAAAAAAAAAAAAAAAAAAAAAAAAAAAAAAAAAAAAAAAAAAAAAAAAAAAAAAAAAAAAAAAAAAAAAAAAAAAAAAAAAAAAAAAAAAAAAAAAAAAAAAAAAAAAAAAAAAAAAAAAAAAAAAAAAAAAAAAAAAAAAAAAAAAAAAAAAAAAAAAAAAAAAAAAAAAAAAAAAAAAAAAAAAAAAAAAAAAAAAAAAAAAAAAAAAAAAAAAAAAAAAAAAAAAAAAAAAAAAAAAAAAAAAAAAAAAAAAAAAAAAAAAAAAAAAAAAAAAAAAAAAAAAAAAAAAAAAAAAAAAAAAAAAAAAAAAAAAAAAAAAAAAAAAAAAAAAAAAAAAAAAAAAAAAAAAAAAAAAAAAAAAAAAAAAAAAAAAAAAAAAAAAAAAAAAAAAAAAAAAAAAAAAAAAAAAAAAAAAAAAAAAAAAAAAAAAAAAAAAAAAAAAAAAAAAAAAAAAAAAAAAAAAAAAAAAAAAAAAAAAAAAAAAAAAAAAAAAAAAAAAAAAAAAAAAAAAAAAAAAAAAAAAAAAAAAAAAAAAAAAAAAAAAAAAAAAAAAAAAAAAAAAAAAAAAAAAAAAAAAAAAAAAAAAAAAAAAAAAAAAAAAAAAAAAAAAAAAAAAAAAAAAAAAAAAAAAAAAAAAAAAAAAAAAAAAAAAAAAAAAAAAAAAAAAAAAAAAAAAAAAAAAAAAAAAAAAAAAAAAAAAAAAAAAAAAAAAAAAAAAAAAAAAAAAAAAAAAAAAAAAAAAAAAAAAAAAAAAAAAAAAAAAAAAAAAAAAAAAAAAAAAAAAAAAAAAAAAAAAAAAAAAAAAAAAAAAAAAAAAAAAAAAAAAAAAAAAAAAAAAAAAAAAAAAAAAAAAAAAAAAAAAAAAAAAAAAAAAAAAAAAAAAAAAAAAAAAAAAAAAAAAAAAAAAAAAAAAAAAAAAAAAAAAAAAAAAAAAAAAAAAAAAAAAAAAAAAAAAAAAAAAAAAAAAAAAAAAAAAAAAAAAAAAAAAAAAAAAAAAAAAAAAAAAAAAAAAAAAAAAAAAAAAAAAAAAAAAAAAAAAAAAAAAAAAAAAAAAAAAAAAAAAAAAAAAAAAAAAAAAAAAAAAAAAAAAAAAAAAAAAAAAAAAAAAAAAAAAAAAAAAAAAAAAAAAAAAAAAAAAAAAAAAAAAAAAAAAAAAAAAAAAAAAAAAAAAAAAAAAAAAAAAAAAAAAAAAAAAAAAAAAAAAAAAAAAAAAAAAAAAAAAAAAAAAAAAAAAAAAAAAAAAAAAAAAAAAAAAAAAAAAAAAAAAAAAAAAAAAAAAAAAAAAAAAAAAAAAAAAAAAAAAAAAAAAAAAAAAAAAAAAAAAAAAAAAAAAAAAAAAAAAAAAAAAAAAAAAAAAAAAAAAAAAAAAAAAAAAAAAAAAAAAAAAAAAAAAAAAAAAAAAAAAAAAAAAAAAAAAAAAAAAAAAAAAAAAAAAAAAAAAAAAAAAAAAAAAAAAAAAAAAAAAAAAAAAAAAAAAAAAAAAAAAAAAAAAAAAAAAAAAAAAAAAAAAAAAAAAAAAAAAAAAAAAAAAAAAAAAAAAAAAAAAAAAAAAAAAAAAAAAAAAAAAAAAAAAAAAAAAAAAAAAAAAAAAAAAAAAAAAAAAAAAAAAAAAAAAAAAAAAAAAAAAAAAAAAAAAAAAAAAAAAAAAAAAAAAAAAAAAAAAAAAAAAAAAAAAAAAAAAAAAAAAAAAAAAAAAAAAAAAAAAAAAAAAAAAAAAAAAAAAAAAAAAAAAAAAAAAAAAAAAAAAAAAAAAAAAAAAAAAAAAAAAAAAAAAAAAAAAAAAAAAAAAAAAAAAAAAAAAAAAAAAAAAAAAAAAAAAAAAAAAAAAAAAAAAAAAAAAAAAAAAAAAAAAAAAAAAAAAAAAAAAAAAAAAAAAAAAAAAAAAAAAAAAAAAAAAAAAAAAAAAAAAAAAAAAAAAAAAAAAAAAAAAAAAAAAAAAAAAAAAAAAAAAAAAAAAAAAAAAAAAAAAAAAAAAAAAAAAAAAAAAAAAAAAAAAAAAAAAAAAAAAAAAAAAAAAAAAAAAAAAAAAAAAAAAAAAAAAAAAAAAAAAAAAAAAAAAAAAAAAAAAAAAAAAAAAAAAAAAAAAAAAAAAAAAAAAAAAAAAAAAAAAAAAAAAAAAAAAAAAAAAAAAAAAAAAAAAAAAAAAAAAAAAAAAAAAAAAAAAAAAAAAAAAAAAAAAAAAAAAAAAAAAAAAAAAAAAAAAAAAAAAAAAAAAAAAAAAAAAAAAAAAAAAAAAAAAAAAAAAAAAAAAAAAAAAAAAAAAAAAAAAAAAAAAAAAAAAAAAAAAAAAAAAAAAAAAAAAAAAAAAAAAAAAAAAAAAAAAAAAAAAAAAAAAAAAAAAAAAAAAAAAAAAAAAAAAAAAAAAAAAAAAAAAAAAAAAAAAAAAAAAAAAAAAAAAAAAAAAAAAAAAAAAAAAAAAAAAAAAAAAAAAAAAAAAAAAAAAAAAAAAAAAAAAAAAAAAAAAAAAAAAAAAAAAAAAAAAAAAAAAAAAAAAAAAAAAAAAAAAAAAAAAAAAAAAAAAAAAAAAAAAAAAAAAAAAAAAAAAAAAAAAAAAAAAAAAAAAAAAAAAAAAAAAAAAAAAAAAAAAAAAAAAAAAAAAAAAAAAAAAAAAAAAAAAAAAAAAAAAAAAAAAAAAAAAAAAAAAAAAAAAAAAAAAAAAAAAAAAAAAAAAAAAAAAAAAAAAAAAAAAAAAAAAAAAAAAAAAAAAAAAAAAAAAAAAAAAAAAAAAAAAAAAAAAAAAAAAAAAAAAAAAAAAAAAAAAAAAAAAAAAAAAAAAAAAAAAAAAAAAAAAAAAAAAAAAAAAAAAAAAAAAAAAAAAAAAAAAAAAAAAAAAAAAAAAAAAAAAAAAAAAAAAAAAAAAAAAAAAAAAAAAAAAAAAAAAAAAAAAAAAAAAAAAAAAAAAAAAAAAAAAAAAAAAAAAAAAAAAAAAAAAAAAAAAAAAAAAAAAAAAAAAAAAAAAAAAAAAAAAAAAAAAAAAAAAAAAAAAAAAAAAAAAAAAAAAAAAAAAAAAAAAAAAAAAAAAAAAAAAAAAAAAAAAAAAAAAAAAAAAAAAAAAAAAAAAAAAAAAAAAAAAAAAAAAAAAAAAAAAAAAAAAAAAAAAAAAAAAAAAAAAAAAAAAAAAAAAAAAAAAAAAAAAAAAAAAAAAAAAAAAAAAAAAAAAAAAAAAAAAAAAAAAAAAAAAAAAAAAAAAAAAAAAAAAAAAAAAAAAAAAAAAAAAAAAAAAAAAAAAAAAAAAAAAAAAAAAAAAAAAAAAAAAAAAAAAAAAAAAAAAAAAAAAAAAAAAAAAAAAAAAAAAAAAAAAAAAAAAAAAAAAAAAAAAAAAAAAAAAAAAAAAAAAAAAAAAAAAAAAAAAAPZYQMLv3rBWy+omfOhL2LTnO5ExWbB+aLLo/enKlfh3gBOCzdL3WT26xPMU1Va/6+c71u5f62xDj0eQiS4HDQLjkVw=</c2pa:manifest></metadata><path fill="currentColor" d="M 11.88,5.52 a 0.23,0.23 0 0,0 0.21,0.12 L 13.02,5.65 a 0.97,0.97 0 0,1 0.91,0.63 l 0.40,1.09 l 0.59,-0.59 a 1.30,1.30 0 0,1 0.34,-0.24 l 0.20,-0.10 a 0.57,0.57 0 0,0 0.30,-0.37 l 0.15,-0.62 a 1.31,1.31 0 0,1 0.68,-0.85 l 0.55,-0.27 a 1.30,1.30 0 0,1 1.37,0.12 l 0.20,0.15 q -0.15,-0.18 -0.31,-0.37 c -0.55,-0.66 -1.19,-1.40 -1.64,-1.60 a 1.38,1.38 0 0,0 -0.19,-0.06 C 15.21,2.71 13.12,4.47 13.10,4.49 a 0.36,0.36 0 0,1 -0.47,-0.55 a 14.59,14.59 0 0,1 1.76,-1.25 a 5.03,5.03 0 0,1 -0.75,0.03 a 7.48,7.48 0 0,1 -1.74,-0.37 c -0.70,-0.20 -1.36,-0.41 -1.94,-0.30 C 9.32,2.13 8.82,2.55 8.28,2.99 l -0.15,0.12 l 0.07,-0.00 a 0.97,0.97 0 0,1 1.00,0.82 a 0.24,0.24 0 0,0 0.25,0.20 l 0.50,-0.02 a 1.75,1.75 0 0,1 1.62,0.89 Z"/><path fill="currentColor" d="M 20.87,6.84 a 1.30,1.30 0 0,1 -0.06,-0.38 a 0.58,0.58 0 0,0 -0.55,-0.61 L 19.65,5.84 a 1.32,1.32 0 0,1 -0.78,-0.26 L 18.12,5.02 a 0.57,0.57 0 0,0 -0.60,-0.05 l -0.55,0.27 a 0.57,0.57 0 0,0 -0.30,0.37 l -0.15,0.62 a 1.31,1.31 0 0,1 -0.68,0.85 l -0.20,0.10 a 0.58,0.58 0 0,0 -0.15,0.10 l -0.78,0.78 a 1.31,1.31 0 0,1 -0.67,0.35 L 13.02,8.66 a 0.58,0.58 0 0,0 -0.44,0.42 l -0.10,0.41 a 1.31,1.31 0 0,1 -0.78,0.90 L 10.67,10.81 a 0.58,0.58 0 0,0 -0.31,0.31 l -0.29,0.69 a 10.40,10.40 0 0,0 1.25,7.06 A 3.15,3.15 0 0,0 12.79,20.19 a 0.36,0.36 0 0,1 -0.28,0.67 a 3.89,3.89 0 0,1 -1.82,-1.60 a 11.12,11.12 0 0,1 -1.22,-3.09 L 9.12,15.80 a 4.27,4.27 0 0,1 -1.08,-3.45 a 0.36,0.36 0 1,1 0.72,0.09 a 3.54,3.54 0 0,0 0.43,2.23 a 11.12,11.12 0 0,1 0.13,-3.02 a 0.39,0.39 0 0,1 0.02,-0.07 l 0.30,-0.73 a 1.32,1.32 0 0,1 0.72,-0.71 l 1.01,-0.40 A 0.58,0.58 0 0,0 11.76,9.32 l 0.10,-0.41 a 1.31,1.31 0 0,1 1.01,-0.97 l 0.82,-0.16 l -0.45,-1.23 a 0.24,0.24 0 0,0 -0.22,-0.15 L 12.21,6.38 a 3.15,3.15 0 0,1 -1.74,0.51 a 7.01,7.01 0 0,1 -1.62,-0.27 a 4.56,4.56 0 0,0 -1.42,-0.21 c -0.37,0.04 -0.71,0.57 -0.90,0.95 a 2.41,2.41 0 0,1 0.68,0.53 C 8.03,8.87 8.46,11.23 8.47,11.33 a 0.36,0.36 0 1,1 -0.72,0.12 c -0.11,-0.62 -0.53,-2.40 -1.11,-3.09 a 2.47,2.47 0 0,0 -0.82,-0.55 a 3.07,3.07 0 0,1 -1.00,-0.68 c -0.17,-0.19 -0.33,-0.41 -0.49,-0.62 c -0.34,-0.44 -0.72,-0.94 -1.04,-1.05 a 0.40,0.40 0 0,0 -0.30,0.04 a 0.53,0.53 0 0,0 -0.26,0.33 a 1.09,1.09 0 0,0 0.08,0.69 a 1.62,1.62 0 0,1 0.02,1.26 a 9.21,9.21 0 0,0 -0.70,3.36 c 0,2.99 1.64,5.69 4.18,7.33 a 9.32,9.32 0 0,1 -0.96,-1.21 a 0.36,0.36 0 0,1 -0.10,-0.16 A 13.26,13.26 0 0,1 3.37,12.22 a 0.36,0.36 0 0,1 0.72,-0.08 a 12.57,12.57 0 0,0 1.32,3.94 c 0.23,-0.90 0.48,-2.15 0.33,-2.80 a 0.36,0.36 0 1,1 0.71,-0.16 c 0.24,1.08 -0.33,3.18 -0.53,3.81 a 7.18,7.18 0 0,0 3.75,2.91 c 0.05,0.43 0.08,1.24 0.08,1.40 a 0.72,0.72 0 0,0 0.72,0.73 l 2.44,0 a 1.07,1.07 0 0,0 0.51,-0.11 c 0.28,-0.15 0.31,-0.33 0.37,-0.68 a 2.08,2.08 0 0,1 0.18,-0.67 A 1.80,1.80 0 0,1 15.19,19.68 l 0.24,-0.08 A 12.26,12.26 0 0,0 16.75,19.06 a 10.04,10.04 0 0,0 1.82,-1.16 a 9.15,9.15 0 0,0 2.57,-3.26 a 8.34,8.34 0 0,0 0.76,-3.46 a 8.11,8.11 0 0,0 -0.45,-2.63 Z m 0.26,4.48 c -0.53,1.18 -2.23,1.91 -2.83,2.14 a 11.98,11.98 0 0,1 -0.64,2.32 c 0.82,-0.37 1.86,-0.91 2.22,-1.33 a 0.36,0.36 0 1,1 0.56,0.47 c -0.64,0.77 -2.65,1.62 -3.22,1.85 a 12.21,12.21 0 0,1 -1.60,2.44 A 0.36,0.36 0 0,1 15.05,18.75 a 11.50,11.50 0 0,0 1.09,-1.53 c -1.18,-0.85 -4.56,-3.36 -4.77,-4.48 a 0.36,0.36 0 1,1 0.72,-0.13 c 0.11,0.59 2.27,2.43 4.41,3.97 c 0.03,-0.07 0.07,-0.15 0.10,-0.22 l 0,0 a 11.26,11.26 0 0,0 0.74,-1.98 C 16.59,13.80 14.12,11.92 13.83,10.82 a 0.36,0.36 0 0,1 0.70,-0.18 c 0.17,0.65 1.78,2.03 3.00,2.95 c 0.02,-0.13 0.04,-0.27 0.06,-0.40 c 0,-0.00 0.00,-0.01 0.00,-0.02 a 11.41,11.41 0 0,0 -0.09,-4.02 a 0.36,0.36 0 0,1 0.71,-0.14 a 12.17,12.17 0 0,1 0.18,3.65 c 0.72,-0.32 1.73,-0.90 2.05,-1.61 a 0.36,0.36 0 0,1 0.66,0.30 Z"/><path fill="currentColor" d="M 10.95,5.36 A 1.00,1.00 0 0,0 10.01,4.84 l -0.50,0.02 a 0.97,0.97 0 0,1 -1.01,-0.82 a 0.23,0.23 0 0,0 -0.24,-0.20 L 6.93,3.91 c -0.22,0.11 -0.60,0.35 -1.00,0.61 a 16.71,16.71 0 0,1 -1.53,0.93 c 0.16,0.19 0.33,0.40 0.49,0.61 s 0.31,0.40 0.46,0.58 a 1.79,1.79 0 0,0 0.51,0.37 c 0.23,-0.48 0.73,-1.24 1.46,-1.34 a 5.02,5.02 0 0,1 1.69,0.23 a 6.51,6.51 0 0,0 1.44,0.25 a 2.48,2.48 0 0,0 0.86,-0.15 a 0.92,0.92 0 0,1 -0.09,-0.12 Z"/></svg>