<svg xmlns="http://www.w3.org/2000/svg" viewBox="0 0 24 24" width="24" height="24" xmlns:c2pa="http://c2pa.org/manifest"><metadata><c2pa:manifest>AAAWgmp1bWIAAAAeanVtZGMycGEAEQAQgAAAqgA4m3EDYzJwYQAAABZcanVtYgAAAEdqdW1kYzJtYQARABCAAACqADibcQN1cm46YzJwYTpkYTViNDFhNi0yYTNlLTRjZTYtYjViNi1kNDUwMmQxOWJhMjIAAAADl2p1bWIAAAApanVtZGMyYXMAEQAQgAAAqgA4m3EDYzJwYS5hc3NlcnRpb25zAAAAALxqdW1iAAAARGp1bWRjYm9yABEAEIAAAKoAOJtxE2MycGEuaW5ncmVkaWVudC52MwAAAAAYYzJzaMW60t+kigUFHOcrWJm4sHsAAABwY2JvcqNpZGM6Zm9ybWF0bWltYWdlL3N2Zyt4bWxqaW5zdGFuY2VJRHgseG1wOmlpZDo1ZGQ2MDc0MS0wMTUyLTQ4YjQtOTM1ZC1hYzYxNWVkYWE2YTBscmVsYXRpb25zaGlwaHBhcmVudE9mAAAB4mp1bWIAAABBanVtZGNib3IAEQAQgAAAqgA4m3ETYzJwYS5hY3Rpb25zLnYyAAAAABhjMnNoGq5QktQjxUHatVJnINORiwAAAZljYm9yomdhY3Rpb25zgqJmYWN0aW9ua2MycGEub3BlbmVkanBhcmFtZXRlcnOha2luZ3JlZGllbnRzgaJjdXJseC1zZWxmI2p1bWJmPWMycGEuYXNzZXJ0aW9ucy9jMnBhLmluZ3JlZGllbnQudjNkaGFzaFggG0YTpkblPKEcdrRDjL9CsSzsuQV9wTgWYetGwlGBHGCkZmFjdGlvbngdY29tLmFudGhyb3BpYy5jbGF1ZGUucHJvdmlkZWRqcGFyYW1ldGVyc6F4H2NvbS5hbnRocm9waWMub3JpZ2luLWNvbmZpZGVuY2VndW5rbm93bmtkZXNjcmlwdGlvbnhmQ2xhdWRlIHByb3ZpZGVkIHRoaXMgZmlsZSBhdCB0aGUgcmVxdWVzdCBvZiBhIHVzZXIgYW5kIG1heSBoYXZlIGNyZWF0ZWQgb3IgbW9kaWZpZWQgdGhlIGZpbGUgY29udGVudHMubXNvZnR3YXJlQWdlbnShZG5hbWVmQ2xhdWRlcmFsbEFjdGlvbnNJbmNsdWRlZPUAAADIanVtYgAAAEBqdW1kY2JvcgARABCAAACqADibcRNjMnBhLmhhc2guZGF0YQAAAAAYYzJzaERizCne7D07Z2f+53TO7BUAAACAY2JvcqVjYWxnZnNoYTI1NmNwYWRNAAAAAAAAAAAAAAAAAGRoYXNoWCCoOvJ0lUrohK+JUCoK98AvhJSUcrGD4RDhPrkQBLNWYmRuYW1lbmp1bWJmIG1hbmlmZXN0amV4Y2x1c2lvbnOBomVzdGFydBiSZmxlbmd0aBkeBAAAAj5qdW1iAAAAJ2p1bWRjMmNsABEAEIAAAKoAOJtxA2MycGEuY2xhaW0udjIAAAACD2Nib3KlY2FsZ2ZzaGEyNTZpc2lnbmF0dXJleE1zZWxmI2p1bWJmPS9jMnBhL3VybjpjMnBhOmRhNWI0MWE2LTJhM2UtNGNlNi1iNWI2LWQ0NTAyZDE5YmEyMi9jMnBhLnNpZ25hdHVyZWppbnN0YW5jZUlEeCx4bXA6aWlkOjgxNGU5NzY1LTA0NDMtNDI5OC05YThhLTYwMTIzNTJiYWNkYnJjcmVhdGVkX2Fzc2VydGlvbnODomN1cmx4LXNlbGYjanVtYmY9YzJwYS5hc3NlcnRpb25zL2MycGEuaW5ncmVkaWVudC52M2RoYXNoWCAbRhOmRuU8oRx2tEOMv0KxLOy5BX3BOBZh60bCUYEcYKJjdXJseCpzZWxmI2p1bWJmPWMycGEuYXNzZXJ0aW9ucy9jMnBhLmFjdGlvbnMudjJkaGFzaFggQUBvVHEfAZGwpUORwhOfxvf8XwFqcTK8tnDqHOVy836iY3VybHgpc2VsZiNqdW1iZj1jMnBhLmFzc2VydGlvbnMvYzJwYS5oYXNoLmRhdGFkaGFzaFgg4NxnZxxFfpefK5Qw+fN9Rt7CW9uFCuyxoWcx9LXOdLh0Y2xhaW1fZ2VuZXJhdG9yX2luZm+jZG5hbWVvQW50aHJvcGljIEZpbGVzZ3ZlcnNpb25lMS4wLjBrc3BlY1ZlcnNpb25lMi40LjAAABA4anVtYgAAAChqdW1kYzJjcwARABCAAACqADibcQNjMnBhLnNpZ25hdHVyZQAAABAIY2JvctKEWQISogEmGCFZAgowggIGMIIBjaADAgECAhRA5aAK7sI50L64g/oGQgU9Z1UTADAKBggqhkjOPQQDAzBJMRcwFQYDVQQKEw5BbnRocm9waWMsIFBCQzEuMCwGA1UEAxMlQW50aHJvcGljIENvbnRlbnQgQ3JlZGVudGlhbHMgUm9vdCBDQTAeFw0yNjA4MDcxODQzNTZaFw0yODA4MDYxOTQzNTZaMEQxFzAVBgNVBAoTDkFudGhyb3BpYywgUEJDMSkwJwYDVQQDEyBBbnRocm9waWMgQ2xhdWRlIENvbnRlbnQgU2lnbmluZzBZMBMGByqGSM49AgEGCCqGSM49AwEHA0IABJh6CmvLUBgFFNU0vUKlOVtE6djd17L5SuwX0LemFisBM3dkd/3cyjxFA3Qo5S46fX0/ihY0VZ7mfb9KF703t5OjWDBWMA4GA1UdDwEB/wQEAwIHgDAVBgNVHSUEDjAMBgorBgEEAYPoXgIBMAwGA1UdEwEB/wQCMAAwHwYDVR0jBBgwFoAUzlHiBIFOZFsj+OPEz5o+nMHXXMIwCgYIKoZIzj0EAwMDZwAwZAIwMXMdFJ4BetLLVY7ORuE9noqbbAZOZn/aArXyTwFAZfKrPzxF2vPoJNf1+UCdg1XGAjBwX1zd9WGqYkqmL5SFqw1QySjr1zJfpJM9+1rdDwSPLMOPOjKuiXjoU/pUUeG9RwmhY3BhZFkNngAAAAAAAAAAAAAAAAAAAAAAAAAAAAAAAAAAAAAAAAAAAAAAAAAAAAAAAAAAAAAAAAAAAAAAAAAAAAAAAAAAAAAAAAAAAAAAAAAAAAAAAAAAAAAAAAAAAAAAAAAAAAAAAAAAAAAAAAAAAAAAAAAAAAAAAAAAAAAAAAAAAAAAAAAAAAAAAAAAAAAAAAAAAAAAAAAAAAAAAAAAAAAAAAAAAAAAAAAAAAAAAAAAAAAAAAAAAAAAAAAAAAAAAAAAAAAAAAAAAAAAAAAAAAAAAAAAAAAAAAAAAAAAAAAAAAAAAAAAAAAAAAAAAAAAAAAAAAAAAAAAAAAAAAAAAAAAAAAAAAAAAAAAAAAAAAAAAAAAAAAAAAAAAAAAAAAAAAAAAAAAAAAAAAAAAAAAAAAAAAAAAAAAAAAAAAAAAAAAAAAAAAAAAAAAAAAAAAAAAAAAAAAAAAAAAAAAAAAAAAAAAAAAAAAAAAAAAAAAAAAAAAAAAAAAAAAAAAAAAAAAAAAAAAAAAAAAAAAAAAAAAAAAAAAAAAAAAAAAAAAAAAAAAAAAAAAAAAAAAAAAAAAAAAAAAAAAAAAAAAAAAAAAAAAAAAAAAAAAAAAAAAAAAAAAAAAAAAAAAAAAAAAAAAAAAAAAAAAAAAAAAAAAAAAAAAAAAAAAAAAAAAAAAAAAAAAAAAAAAAAAAAAAAAAAAAAAAAAAAAAAAAAAAAAAAAAAAAAAAAAAAAAAAAAAAAAAAAAAAAAAAAAAAAAAAAAAAAAAAAAAAAAAAAAAAAAAAAAAAAAAAAAAAAAAAAAAAAAAAAAAAAAAAAAAAAAAAAAAAAAAAAAAAAAAAAAAAAAAAAAAAAAAAAAAAAAAAAAAAAAAAAAAAAAAAAAAAAAAAAAAAAAAAAAAAAAAAAAAAAAAAAAAAAAAAAAAAAAAAAAAAAAAAAAAAAAAAAAAAAAAAAAAAAAAAAAAAAAAAAAAAAAAAAAAAAAAAAAAAAAAAAAAAAAAAAAAAAAAAAAAAAAAAAAAAAAAAAAAAAAAAAAAAAAAAAAAAAAAAAAAAAAAAAAAAAAAAAAAAAAAAAAAAAAAAAAAAAAAAAAAAAAAAAAAAAAAAAAAAAAAAAAAAAAAAAAAAAAAAAAAAAAAAAAAAAAAAAAAAAAAAAAAAAAAAAAAAAAAAAAAAAAAAAAAAAAAAAAAAAAAAAAAAAAAAAAAAAAAAAAAAAAAAAAAAAAAAAAAAAAAAAAAAAAAAAAAAAAAAAAAAAAAAAAAAAAAAAAAAAAAAAAAAAAAAAAAAAAAAAAAAAAAAAAAAAAAAAAAAAAAAAAAAAAAAAAAAAAAAAAAAAAAAAAAAAAAAAAAAAAAAAAAAAAAAAAAAAAAAAAAAAAAAAAAAAAAAAAAAAAAAAAAAAAAAAAAAAAAAAAAAAAAAAAAAAAAAAAAAAAAAAAAAAAAAAAAAAAAAAAAAAAAAAAAAAAAAAAAAAAAAAAAAAAAAAAAAAAAAAAAAAAAAAAAAAAAAAAAAAAAAAAAAAAAAAAAAAAAAAAAAAAAAAAAAAAAAAAAAAAAAAAAAAAAAAAAAAAAAAAAAAAAAAAAAAAAAAAAAAAAAAAAAAAAAAAAAAAAAAAAAAAAAAAAAAAAAAAAAAAAAAAAAAAAAAAAAAAAAAAAAAAAAAAAAAAAAAAAAAAAAAAAAAAAAAAAAAAAAAAAAAAAAAAAAAAAAAAAAAAAAAAAAAAAAAAAAAAAAAAAAAAAAAAAAAAAAAAAAAAAAAAAAAAAAAAAAAAAAAAAAAAAAAAAAAAAAAAAAAAAAAAAAAAAAAAAAAAAAAAAAAAAAAAAAAAAAAAAAAAAAAAAAAAAAAAAAAAAAAAAAAAAAAAAAAAAAAAAAAAAAAAAAAAAAAAAAAAAAAAAAAAAAAAAAAAAAAAAAAAAAAAAAAAAAAAAAAAAAAAAAAAAAAAAAAAAAAAAAAAAAAAAAAAAAAAAAAAAAAAAAAAAAAAAAAAAAAAAAAAAAAAAAAAAAAAAAAAAAAAAAAAAAAAAAAAAAAAAAAAAAAAAAAAAAAAAAAAAAAAAAAAAAAAAAAAAAAAAAAAAAAAAAAAAAAAAAAAAAAAAAAAAAAAAAAAAAAAAAAAAAAAAAAAAAAAAAAAAAAAAAAAAAAAAAAAAAAAAAAAAAAAAAAAAAAAAAAAAAAAAAAAAAAAAAAAAAAAAAAAAAAAAAAAAAAAAAAAAAAAAAAAAAAAAAAAAAAAAAAAAAAAAAAAAAAAAAAAAAAAAAAAAAAAAAAAAAAAAAAAAAAAAAAAAAAAAAAAAAAAAAAAAAAAAAAAAAAAAAAAAAAAAAAAAAAAAAAAAAAAAAAAAAAAAAAAAAAAAAAAAAAAAAAAAAAAAAAAAAAAAAAAAAAAAAAAAAAAAAAAAAAAAAAAAAAAAAAAAAAAAAAAAAAAAAAAAAAAAAAAAAAAAAAAAAAAAAAAAAAAAAAAAAAAAAAAAAAAAAAAAAAAAAAAAAAAAAAAAAAAAAAAAAAAAAAAAAAAAAAAAAAAAAAAAAAAAAAAAAAAAAAAAAAAAAAAAAAAAAAAAAAAAAAAAAAAAAAAAAAAAAAAAAAAAAAAAAAAAAAAAAAAAAAAAAAAAAAAAAAAAAAAAAAAAAAAAAAAAAAAAAAAAAAAAAAAAAAAAAAAAAAAAAAAAAAAAAAAAAAAAAAAAAAAAAAAAAAAAAAAAAAAAAAAAAAAAAAAAAAAAAAAAAAAAAAAAAAAAAAAAAAAAAAAAAAAAAAAAAAAAAAAAAAAAAAAAAAAAAAAAAAAAAAAAAAAAAAAAAAAAAAAAAAAAAAAAAAAAAAAAAAAAAAAAAAAAAAAAAAAAAAAAAAAAAAAAAAAAAAAAAAAAAAAAAAAAAAAAAAAAAAAAAAAAAAAAAAAAAAAAAAAAAAAAAAAAAAAAAAAAAAAAAAAAAAAAAAAAAAAAAAAAAAAAAAAAAAAAAAAAAAAAAAAAAAAAAAAAAAAAAAAAAAAAAAAAAAAAAAAAAAAAAAAAAAAAAAAAAAAAAAAAAAAAAAAAAAAAAAAAAAAAAAAAAAAAAAAAAAAAAAAAAAAAAAAAAAAAAAAAAAAAAAAAAAAAAAAAAAAAAAAAAAAAAAAAAAAAAAAAAAAAAAAAAAAAAAAAAAAAAAAAAAAAAAAAAAAAAAAAAAAAAAAAAAAAAAAAAAAAAAAAAAAAAAAAAAAAAAAAAAAAAAAAAAAAAAAAAAAAAAAAAAAAAAAAAAAAAAAAAAAAAAAAAAAAAAAAAAAAAAAAAAAAAAAAAAAAAAAAAAAAAAAAAAAAAAAAAAAAAAAAAAAAAAAAAAAAAAAAAAAAAAAAAAAAAAAAAAAAAAAAAAAAAAAAAAAAAAAAAAAAAAAAAAAAAAAAAAAAAAAAAAAAAAAAAAAAAAAAAAAAAAAAAAAAAAAAAAAAAAAAAAAAAAAAAAAAAAAAAAAAAAAAAAAAAAAAAAAAAAAAAAAAAAAAAAAAAAAAAAAAAAAAAAAAAAAAAAAAAAAAAAAAAAAAAAAAAAAAAAAAAAAAAAAAAAAAAAAAAAAAAAAAAAAAAAAAAAAAAAAAAAAAAAAAAAAAAAAAAAAAAAAAAAAAAAAAAAAAAAAAAAAAAAAAAAAAAAAAAAAAAAAAAAAAAAAAAAAAAAAAAAAAAAAAAAAAAAAAAAAAAAAAAAAAAAAAAAAAAAAAAAAAAAAAAAAAAAAAAAAAAAAAAAAAAAAAAAAAAAAAAAAAAAAAAAAAAAAAAAAAAAAAAAAAAAAAAAAAAAAAAAAAAAAAAAAAAAAAAAAAAAAAAAAAAAAAAAAAAAAAAAAAAAAAAAAAAAAAAAAAAAAAAAAAAAAAAAAAAAAAAAAAAAAAAAAAAAAAAAAAAAAAAAAAAAAAAAAAAAAAAAAAAAAAAAAAAAAAAAAAAAAAAAAAAAAAAAAAAAAAAAAAAAAAAAAAAAAAAAAAAAAAAAAAAAAAAAAAAAAAAAAAAAAAAAAAAAAAAAAAAAAAAAAAAAAAAAAAAAAAAAAAAAAAAAAAAAAAAAAAAAAAAAAAAAAAAAAAAAAAAAAAAAAAAAAAAAAAAAAAAAAAAAAAAAAAAAAAAAAAAAAAAAAAAAAAAAAAAAAAAAAAAAAAAAAAAAAAAAAAAAAAAAAAAAAAAAAAAAAAAAAAAAAAAAAAAAAAAAAAAAAAAAAAAAAAAAAAAAAAAAAAAAAAAAAAAAAAAAAAAAAAAAAAAAAAAAAAAAAAAAAAAAAAAAAAAAAAAAAAAAAAAAAAAAAAAAAAAAAAAAAAAAAAAAAAAAAAAAAAAAAAAAAAAAAAAAAAAAAAAAAAAAAAAAAAAAAAAAAAAAAAAAAAAAAAAAAAAAAAAAAAAAAAAAAAAAAAAAAAAAAAAAAAAAAAAAAAAAAAAAAAAAAAAAAAAAAAAAAAAAAAAAAAAAAAAAAAAAAAAAAAAAAAAAAAAAAAAAAAAAAAAAAAAAAAAAAAAAAAAAAAAAAAAAAAAAAAAAAAAAAAAAAAAAAAAAAAAAAAAAAAAAAAAAAAAAAAAAAAAAAAAAAAAAAAAAAAAAAAAAAAAAAAAAAAAAAAAAAAAAAAAAAAAAAAAAAAAAAAAAAAAAAAAAAAAAAAAAAAAAAAAAAAAAAAAAAAAAAAAAAAAAAAAAAAAAAAAAAAAAAAAAAAAAAAAAAAAAAAAPZYQGA3EkB6DLp8t/9RZ+mAA+jO5dnJrG8mnxMt15dWhP3Wz5sG+GKJ1lyAf2P/JwZy3OFNeDCONyFm1oc94Sva2G0=</c2pa:manifest></metadata><path fill="currentColor" d="m 21.66,10.06 a 0.34,0.34 0 0,1 -0.03,-0.21 a 3.19,3.19 0 0,0 -0.24,-0.31 c -0.34,-0.40 -0.58,-0.53 -1.23,-0.89 l -0.00,-0.00 c -0.09,-0.05 -0.20,-0.11 -0.31,-0.17 c -1.07,-0.60 -2.53,-1.43 -3.95,-1.69 c -0.84,-0.15 -1.76,-0.13 -2.73,-0.10 c -0.37,0.01 -0.76,0.02 -1.15,0.02 c -0.41,0 -0.76,-0.01 -1.07,-0.02 c -0.73,-0.02 -1.26,-0.04 -2.10,0.12 c -0.49,0.09 -2.01,0.46 -2.46,0.59 c -1.12,0.31 -1.90,0.91 -2.66,1.48 c -0.12,0.09 -0.23,0.17 -0.35,0.26 c -0.52,0.39 -0.90,0.72 -1.13,1.09 a 0.33,0.33 0 0,1 -0.01,0.17 a 3.46,3.46 0 0,0 -0.19,0.86 c 0.08,0.61 0.53,1.12 1.60,1.83 c 0.16,0.10 0.32,0.23 0.50,0.37 c 0.28,0.21 0.60,0.46 0.92,0.63 a 2.38,2.38 0 0,0 0.01,-0.58 a 2.43,2.43 0 0,0 -0.11,-0.55 a 0.34,0.34 0 0,1 0.64,-0.21 a 3.10,3.10 0 0,1 0.15,0.70 a 3.07,3.07 0 0,1 -0.01,0.67 c 0.14,0.06 0.26,0.17 0.38,0.27 c 0.09,0.08 0.21,0.18 0.28,0.20 c 1.03,0.31 1.98,0.42 3.10,0.47 c 0.04,-0.31 0.08,-0.63 0.10,-0.95 c 0.02,-0.34 0.04,-0.70 0.04,-1.05 a 0.34,0.34 0 0,1 0.34,-0.33 l 0.00,0 a 0.34,0.34 0 0,1 0.33,0.34 c -0.00,0.36 -0.01,0.74 -0.04,1.10 c -0.02,0.30 -0.05,0.61 -0.10,0.91 c 0.40,0.00 0.83,0.00 1.30,0.00 c 0.30,0 0.69,0.04 1.09,0.09 c 0.47,0.05 0.97,0.11 1.28,0.09 c 0.04,-0.00 0.15,-0.07 0.22,-0.11 c 0.14,-0.09 0.30,-0.19 0.49,-0.21 a 0.59,0.59 0 0,1 0.13,-0.00 c 0.18,-0.65 0.11,-0.93 0.03,-1.04 c -0.01,-0.02 -0.05,-0.07 -0.11,-0.16 c -0.07,-0.11 -0.21,-0.29 -0.42,-0.59 c -0.13,-0.19 -0.24,-0.34 -0.31,-0.45 a 0.34,0.34 0 0,1 0.56,-0.39 c 0.07,0.10 0.18,0.25 0.31,0.44 c 0.20,0.29 0.34,0.48 0.41,0.59 c 0.07,0.10 0.10,0.15 0.12,0.18 c 0.23,0.35 0.25,0.87 0.05,1.56 a 17.76,17.76 0 0,0 1.78,-0.37 c 0.02,-0.02 0.05,-0.06 0.07,-0.08 c 0.09,-0.11 0.20,-0.24 0.36,-0.29 a 0.53,0.53 0 0,1 0.31,0.00 c 0.06,-0.49 0.07,-0.93 0.02,-1.33 c -0.02,-0.23 -0.07,-0.61 -0.28,-1.06 a 3.01,3.01 0 0,0 -0.56,-0.80 a 0.34,0.34 0 0,1 0.48,-0.47 a 3.70,3.70 0 0,1 0.69,0.99 c 0.26,0.55 0.31,1.02 0.34,1.27 c 0.04,0.39 0.04,0.84 -0.00,1.31 c 0.63,-0.24 1.19,-0.52 1.67,-0.83 c -0.02,-0.14 -0.05,-0.39 0.14,-0.54 c 0.10,-0.08 0.22,-0.09 0.34,-0.08 c -0.04,-0.23 -0.09,-0.47 -0.14,-0.70 c -0.15,-0.73 -0.23,-1.03 -0.41,-1.39 a 3.50,3.50 0 0,0 -0.57,-0.81 a 3.19,3.19 0 0,0 -0.97,-0.69 a 0.34,0.34 0 0,1 0.28,-0.62 a 3.87,3.87 0 0,1 1.18,0.83 a 4.20,4.20 0 0,1 0.68,0.98 c 0.23,0.45 0.33,0.85 0.48,1.57 c 0.03,0.17 0.07,0.34 0.10,0.52 c 0.33,-0.39 0.52,-0.79 0.57,-1.21 a 3.57,3.57 0 0,0 -0.33,-1.19 z m -15.73,0.64 l -0.09,0 a 0.34,0.34 0 1,1 0,-0.68 l 0.09,0 a 0.34,0.34 0 1,1 0,0.68 z m 1.94,2.49 l -0.09,0 a 0.34,0.34 0 0,1 0,-0.68 l 0.09,0 a 0.34,0.34 0 0,1 0,0.68 z m 3.33,1.66 l -0.09,0 a 0.34,0.34 0 0,1 0,-0.68 l 0.09,0 a 0.34,0.34 0 0,1 0,0.68 z m 0,-2.77 l -0.09,0 a 0.34,0.34 0 0,1 0,-0.68 l 0.09,0 a 0.34,0.34 0 0,1 0,0.68 z m 2.49,-1.66 l -0.09,0 a 0.34,0.34 0 1,1 0,-0.68 l 0.09,0 a 0.34,0.34 0 0,1 0,0.68 z m 3.33,1.81 a 0.34,0.34 0 0,1 0,0.68 l -0.09,0 a 0.34,0.34 0 1,1 0,-0.68 z m 1.84,-1.66 l 0.09,0 a 0.34,0.34 0 0,1 0,0.68 l -0.09,0 a 0.34,0.34 0 0,1 0,-0.68 z"/><path fill="currentColor" d="m 21.66,13.20 c -0.70,1.63 -2.45,3.05 -4.77,3.75 c -1.31,0.39 -3.02,0.39 -4.68,0.39 l -0.20,0 c -1.78,0 -3.85,-0.26 -5.15,-0.65 c -2.50,-0.75 -4.13,-2.12 -4.67,-3.84 c 0.28,0.27 0.64,0.53 1.04,0.80 c 0.14,0.09 0.30,0.21 0.46,0.34 c 0.37,0.28 0.80,0.61 1.27,0.82 a 0.34,0.34 0 0,0 0.57,-0.00 c 0.04,0.03 0.08,0.06 0.12,0.10 c 0.15,0.12 0.32,0.27 0.52,0.33 c 1.07,0.32 2.06,0.44 3.23,0.49 a 0.34,0.34 0 0,0 0.25,0.20 a 0.35,0.35 0 0,0 0.06,0.00 a 0.34,0.34 0 0,0 0.30,-0.19 c 0.44,0.00 0.91,0.01 1.42,0.01 c 0.26,0 0.62,0.04 1.01,0.08 c 0.41,0.05 0.85,0.10 1.19,0.10 c 0.07,0 0.15,-0.00 0.22,-0.00 c 0.21,-0.01 0.38,-0.12 0.53,-0.22 c 0.04,-0.02 0.10,-0.06 0.15,-0.09 a 0.34,0.34 0 0,0 0.43,0.13 a 0.63,0.63 0 0,0 0.25,0.01 a 18.60,18.60 0 0,0 2.08,-0.43 c 0.17,-0.04 0.29,-0.19 0.38,-0.30 l 0.02,-0.03 c 0.07,0.04 0.19,0.09 0.33,0.09 l 0.01,0.00 a 0.34,0.34 0 0,0 0.05,0.00 a 0.34,0.34 0 0,0 0.21,-0.07 c 0.93,-0.32 1.73,-0.71 2.39,-1.15 c 0.15,-0.10 0.18,-0.25 0.18,-0.38 c 0.14,0.02 0.30,0.02 0.43,-0.09 q 0.12,-0.11 0.23,-0.22 z"/></svg>