<svg xmlns="http://www.w3.org/2000/svg" viewBox="144.00 24.00 24 24" width="24" height="24" xmlns:c2pa="http://c2pa.org/manifest"><metadata><c2pa:manifest>AAAWgmp1bWIAAAAeanVtZGMycGEAEQAQgAAAqgA4m3EDYzJwYQAAABZcanVtYgAAAEdqdW1kYzJtYQARABCAAACqADibcQN1cm46YzJwYTo5NGFlMjdjMi05ODUyLTQyNWQtYjIyNC1iMmQ5YjI1ZDRlYzAAAAADl2p1bWIAAAApanVtZGMyYXMAEQAQgAAAqgA4m3EDYzJwYS5hc3NlcnRpb25zAAAAALxqdW1iAAAARGp1bWRjYm9yABEAEIAAAKoAOJtxE2MycGEuaW5ncmVkaWVudC52MwAAAAAYYzJzaEocfViDqyYDjLb9GNAWQ10AAABwY2JvcqNpZGM6Zm9ybWF0bWltYWdlL3N2Zyt4bWxqaW5zdGFuY2VJRHgseG1wOmlpZDphYTQ2NTkzNC0xZGU5LTQ1ZTktODk1NS00NTI3MzRiY2E3NjZscmVsYXRpb25zaGlwaHBhcmVudE9mAAAB4mp1bWIAAABBanVtZGNib3IAEQAQgAAAqgA4m3ETYzJwYS5hY3Rpb25zLnYyAAAAABhjMnNoaQckXzbf0DlYRuAEZucPhwAAAZljYm9yomdhY3Rpb25zgqJmYWN0aW9ua2MycGEub3BlbmVkanBhcmFtZXRlcnOha2luZ3JlZGllbnRzgaJjdXJseC1zZWxmI2p1bWJmPWMycGEuYXNzZXJ0aW9ucy9jMnBhLmluZ3JlZGllbnQudjNkaGFzaFggr43dLAF3xU5o4dlZY9bNt79Vyecp7d740UKKpsvPER2kZmFjdGlvbngdY29tLmFudGhyb3BpYy5jbGF1ZGUucHJvdmlkZWRqcGFyYW1ldGVyc6F4H2NvbS5hbnRocm9waWMub3JpZ2luLWNvbmZpZGVuY2VndW5rbm93bmtkZXNjcmlwdGlvbnhmQ2xhdWRlIHByb3ZpZGVkIHRoaXMgZmlsZSBhdCB0aGUgcmVxdWVzdCBvZiBhIHVzZXIgYW5kIG1heSBoYXZlIGNyZWF0ZWQgb3IgbW9kaWZpZWQgdGhlIGZpbGUgY29udGVudHMubXNvZnR3YXJlQWdlbnShZG5hbWVmQ2xhdWRlcmFsbEFjdGlvbnNJbmNsdWRlZPUAAADIanVtYgAAAEBqdW1kY2JvcgARABCAAACqADibcRNjMnBhLmhhc2guZGF0YQAAAAAYYzJzaEePsKmp4MbDqwO3lMVKJr8AAACAY2JvcqVjYWxnZnNoYTI1NmNwYWRNAAAAAAAAAAAAAAAAAGRoYXNoWCA81M+BDfGDXXEo9VgKR3F/jhPfdZQBxIshLGy8Q8iBo2RuYW1lbmp1bWJmIG1hbmlmZXN0amV4Y2x1c2lvbnOBomVzdGFydBibZmxlbmd0aBkeBAAAAj5qdW1iAAAAJ2p1bWRjMmNsABEAEIAAAKoAOJtxA2MycGEuY2xhaW0udjIAAAACD2Nib3KlY2FsZ2ZzaGEyNTZpc2lnbmF0dXJleE1zZWxmI2p1bWJmPS9jMnBhL3VybjpjMnBhOjk0YWUyN2MyLTk4NTItNDI1ZC1iMjI0LWIyZDliMjVkNGVjMC9jMnBhLnNpZ25hdHVyZWppbnN0YW5jZUlEeCx4bXA6aWlkOjZkN2NiYTZmLTg5MDMtNGNkMi1hMTZiLTBkNWM2MDMwNmYwOXJjcmVhdGVkX2Fzc2VydGlvbnODomN1cmx4LXNlbGYjanVtYmY9YzJwYS5hc3NlcnRpb25zL2MycGEuaW5ncmVkaWVudC52M2RoYXNoWCCvjd0sAXfFTmjh2Vlj1s23v1XJ5ynt3vjRQoqmy88RHaJjdXJseCpzZWxmI2p1bWJmPWMycGEuYXNzZXJ0aW9ucy9jMnBhLmFjdGlvbnMudjJkaGFzaFggo8NujKwJjKfPeTbaeRrAsnF25fjuHxiQVPsWLZ6wYriiY3VybHgpc2VsZiNqdW1iZj1jMnBhLmFzc2VydGlvbnMvYzJwYS5oYXNoLmRhdGFkaGFzaFgg16bGZDVS25bM2ed3LGk8bEiInF9JNFxkZk8oUsrgArV0Y2xhaW1fZ2VuZXJhdG9yX2luZm+jZG5hbWVvQW50aHJvcGljIEZpbGVzZ3ZlcnNpb25lMS4wLjBrc3BlY1ZlcnNpb25lMi40LjAAABA4anVtYgAAAChqdW1kYzJjcwARABCAAACqADibcQNjMnBhLnNpZ25hdHVyZQAAABAIY2JvctKEWQISogEmGCFZAgowggIGMIIBjaADAgECAhRA5aAK7sI50L64g/oGQgU9Z1UTADAKBggqhkjOPQQDAzBJMRcwFQYDVQQKEw5BbnRocm9waWMsIFBCQzEuMCwGA1UEAxMlQW50aHJvcGljIENvbnRlbnQgQ3JlZGVudGlhbHMgUm9vdCBDQTAeFw0yNjA4MDcxODQzNTZaFw0yODA4MDYxOTQzNTZaMEQxFzAVBgNVBAoTDkFudGhyb3BpYywgUEJDMSkwJwYDVQQDEyBBbnRocm9waWMgQ2xhdWRlIENvbnRlbnQgU2lnbmluZzBZMBMGByqGSM49AgEGCCqGSM49AwEHA0IABJh6CmvLUBgFFNU0vUKlOVtE6djd17L5SuwX0LemFisBM3dkd/3cyjxFA3Qo5S46fX0/ihY0VZ7mfb9KF703t5OjWDBWMA4GA1UdDwEB/wQEAwIHgDAVBgNVHSUEDjAMBgorBgEEAYPoXgIBMAwGA1UdEwEB/wQCMAAwHwYDVR0jBBgwFoAUzlHiBIFOZFsj+OPEz5o+nMHXXMIwCgYIKoZIzj0EAwMDZwAwZAIwMXMdFJ4BetLLVY7ORuE9noqbbAZOZn/aArXyTwFAZfKrPzxF2vPoJNf1+UCdg1XGAjBwX1zd9WGqYkqmL5SFqw1QySjr1zJfpJM9+1rdDwSPLMOPOjKuiXjoU/pUUeG9RwmhY3BhZFkNngAAAAAAAAAAAAAAAAAAAAAAAAAAAAAAAAAAAAAAAAAAAAAAAAAAAAAAAAAAAAAAAAAAAAAAAAAAAAAAAAAAAAAAAAAAAAAAAAAAAAAAAAAAAAAAAAAAAAAAAAAAAAAAAAAAAAAAAAAAAAAAAAAAAAAAAAAAAAAAAAAAAAAAAAAAAAAAAAAAAAAAAAAAAAAAAAAAAAAAAAAAAAAAAAAAAAAAAAAAAAAAAAAAAAAAAAAAAAAAAAAAAAAAAAAAAAAAAAAAAAAAAAAAAAAAAAAAAAAAAAAAAAAAAAAAAAAAAAAAAAAAAAAAAAAAAAAAAAAAAAAAAAAAAAAAAAAAAAAAAAAAAAAAAAAAAAAAAAAAAAAAAAAAAAAAAAAAAAAAAAAAAAAAAAAAAAAAAAAAAAAAAAAAAAAAAAAAAAAAAAAAAAAAAAAAAAAAAAAAAAAAAAAAAAAAAAAAAAAAAAAAAAAAAAAAAAAAAAAAAAAAAAAAAAAAAAAAAAAAAAAAAAAAAAAAAAAAAAAAAAAAAAAAAAAAAAAAAAAAAAAAAAAAAAAAAAAAAAAAAAAAAAAAAAAAAAAAAAAAAAAAAAAAAAAAAAAAAAAAAAAAAAAAAAAAAAAAAAAAAAAAAAAAAAAAAAAAAAAAAAAAAAAAAAAAAAAAAAAAAAAAAAAAAAAAAAAAAAAAAAAAAAAAAAAAAAAAAAAAAAAAAAAAAAAAAAAAAAAAAAAAAAAAAAAAAAAAAAAAAAAAAAAAAAAAAAAAAAAAAAAAAAAAAAAAAAAAAAAAAAAAAAAAAAAAAAAAAAAAAAAAAAAAAAAAAAAAAAAAAAAAAAAAAAAAAAAAAAAAAAAAAAAAAAAAAAAAAAAAAAAAAAAAAAAAAAAAAAAAAAAAAAAAAAAAAAAAAAAAAAAAAAAAAAAAAAAAAAAAAAAAAAAAAAAAAAAAAAAAAAAAAAAAAAAAAAAAAAAAAAAAAAAAAAAAAAAAAAAAAAAAAAAAAAAAAAAAAAAAAAAAAAAAAAAAAAAAAAAAAAAAAAAAAAAAAAAAAAAAAAAAAAAAAAAAAAAAAAAAAAAAAAAAAAAAAAAAAAAAAAAAAAAAAAAAAAAAAAAAAAAAAAAAAAAAAAAAAAAAAAAAAAAAAAAAAAAAAAAAAAAAAAAAAAAAAAAAAAAAAAAAAAAAAAAAAAAAAAAAAAAAAAAAAAAAAAAAAAAAAAAAAAAAAAAAAAAAAAAAAAAAAAAAAAAAAAAAAAAAAAAAAAAAAAAAAAAAAAAAAAAAAAAAAAAAAAAAAAAAAAAAAAAAAAAAAAAAAAAAAAAAAAAAAAAAAAAAAAAAAAAAAAAAAAAAAAAAAAAAAAAAAAAAAAAAAAAAAAAAAAAAAAAAAAAAAAAAAAAAAAAAAAAAAAAAAAAAAAAAAAAAAAAAAAAAAAAAAAAAAAAAAAAAAAAAAAAAAAAAAAAAAAAAAAAAAAAAAAAAAAAAAAAAAAAAAAAAAAAAAAAAAAAAAAAAAAAAAAAAAAAAAAAAAAAAAAAAAAAAAAAAAAAAAAAAAAAAAAAAAAAAAAAAAAAAAAAAAAAAAAAAAAAAAAAAAAAAAAAAAAAAAAAAAAAAAAAAAAAAAAAAAAAAAAAAAAAAAAAAAAAAAAAAAAAAAAAAAAAAAAAAAAAAAAAAAAAAAAAAAAAAAAAAAAAAAAAAAAAAAAAAAAAAAAAAAAAAAAAAAAAAAAAAAAAAAAAAAAAAAAAAAAAAAAAAAAAAAAAAAAAAAAAAAAAAAAAAAAAAAAAAAAAAAAAAAAAAAAAAAAAAAAAAAAAAAAAAAAAAAAAAAAAAAAAAAAAAAAAAAAAAAAAAAAAAAAAAAAAAAAAAAAAAAAAAAAAAAAAAAAAAAAAAAAAAAAAAAAAAAAAAAAAAAAAAAAAAAAAAAAAAAAAAAAAAAAAAAAAAAAAAAAAAAAAAAAAAAAAAAAAAAAAAAAAAAAAAAAAAAAAAAAAAAAAAAAAAAAAAAAAAAAAAAAAAAAAAAAAAAAAAAAAAAAAAAAAAAAAAAAAAAAAAAAAAAAAAAAAAAAAAAAAAAAAAAAAAAAAAAAAAAAAAAAAAAAAAAAAAAAAAAAAAAAAAAAAAAAAAAAAAAAAAAAAAAAAAAAAAAAAAAAAAAAAAAAAAAAAAAAAAAAAAAAAAAAAAAAAAAAAAAAAAAAAAAAAAAAAAAAAAAAAAAAAAAAAAAAAAAAAAAAAAAAAAAAAAAAAAAAAAAAAAAAAAAAAAAAAAAAAAAAAAAAAAAAAAAAAAAAAAAAAAAAAAAAAAAAAAAAAAAAAAAAAAAAAAAAAAAAAAAAAAAAAAAAAAAAAAAAAAAAAAAAAAAAAAAAAAAAAAAAAAAAAAAAAAAAAAAAAAAAAAAAAAAAAAAAAAAAAAAAAAAAAAAAAAAAAAAAAAAAAAAAAAAAAAAAAAAAAAAAAAAAAAAAAAAAAAAAAAAAAAAAAAAAAAAAAAAAAAAAAAAAAAAAAAAAAAAAAAAAAAAAAAAAAAAAAAAAAAAAAAAAAAAAAAAAAAAAAAAAAAAAAAAAAAAAAAAAAAAAAAAAAAAAAAAAAAAAAAAAAAAAAAAAAAAAAAAAAAAAAAAAAAAAAAAAAAAAAAAAAAAAAAAAAAAAAAAAAAAAAAAAAAAAAAAAAAAAAAAAAAAAAAAAAAAAAAAAAAAAAAAAAAAAAAAAAAAAAAAAAAAAAAAAAAAAAAAAAAAAAAAAAAAAAAAAAAAAAAAAAAAAAAAAAAAAAAAAAAAAAAAAAAAAAAAAAAAAAAAAAAAAAAAAAAAAAAAAAAAAAAAAAAAAAAAAAAAAAAAAAAAAAAAAAAAAAAAAAAAAAAAAAAAAAAAAAAAAAAAAAAAAAAAAAAAAAAAAAAAAAAAAAAAAAAAAAAAAAAAAAAAAAAAAAAAAAAAAAAAAAAAAAAAAAAAAAAAAAAAAAAAAAAAAAAAAAAAAAAAAAAAAAAAAAAAAAAAAAAAAAAAAAAAAAAAAAAAAAAAAAAAAAAAAAAAAAAAAAAAAAAAAAAAAAAAAAAAAAAAAAAAAAAAAAAAAAAAAAAAAAAAAAAAAAAAAAAAAAAAAAAAAAAAAAAAAAAAAAAAAAAAAAAAAAAAAAAAAAAAAAAAAAAAAAAAAAAAAAAAAAAAAAAAAAAAAAAAAAAAAAAAAAAAAAAAAAAAAAAAAAAAAAAAAAAAAAAAAAAAAAAAAAAAAAAAAAAAAAAAAAAAAAAAAAAAAAAAAAAAAAAAAAAAAAAAAAAAAAAAAAAAAAAAAAAAAAAAAAAAAAAAAAAAAAAAAAAAAAAAAAAAAAAAAAAAAAAAAAAAAAAAAAAAAAAAAAAAAAAAAAAAAAAAAAAAAAAAAAAAAAAAAAAAAAAAAAAAAAAAAAAAAAAAAAAAAAAAAAAAAAAAAAAAAAAAAAAAAAAAAAAAAAAAAAAAAAAAAAAAAAAAAAAAAAAAAAAAAAAAAAAAAAAAAAAAAAAAAAAAAAAAAAAAAAAAAAAAAAAAAAAAAAAAAAAAAAAAAAAAAAAAAAAAAAAAAAAAAAAAAAAAAAAAAAAAAAAAAAAAAAAAAAAAAAAAAAAAAAAAAAAAAAAAAAAAAAAAAAAAAAAAAAAAAAAAAAAAAAAAAAAAAAAAAAAAAAAAAAAAAAAAAAAAAAAAAAAAAAAAAAAAAAAAAAAAAAAAAAAAAAAAAAAAAAAAAAAAAAAAAAAAAAAAAAAAAAAAAAAAAAAAAAAAAAAAAAAAAAAAAAAAAAAAAAAAAAAAAAAAAAAAAAAAAAAAAAAAAAAAAAAAAAAAAAAAAAAAAAAAAAAAAAAAAAAAAAAAAAAAAAAAAAAAAAAAAAAAAAAAAAAAAAAAAAAAAAAAAAAAAAAAAAAAAAAAAAAAAAAAAAAAAAAAAAAAAAAAAAAAAAAAAAAAAAAAAAAAAAAAAAAAAAAAAAAAAAAAAAAAAAAAAAAAAAAAAAAAAAAAAAAAAAAAAAAAAAAAAAAAAAAAAAAAAAAAAAAAAAAAAAAAAAAAAAAAAAAAAAAAAAAAAAAAAAAAAAAAAAAAAAAAAAAAAAAAAAAAAAAAAAAAAAAAAAAAAAAAAAAAAAAAAAAAAAAAAAAAAAAAAAAAAAAAAAAAAAAAAAAAAAAAAAAAAAAAAAAAAAAAAAAAAAAAAAAAAAAAAAAAAAAAAAAAAAAAAAAAAAAAAAAAAAAAAAAAAAAAAAAAAAAAAAAAAAAAAAAAAAAAAAAAAAAAAAAAAAAAAAAAAAAAAAAAAAAAAAAAAAAAAAAAAAAAAAAAAAAAAAAAAAAAAAAAAAAAAAAAAAAAAAAAAAAAAAAAAAAAAAAAAAAAAAAAAAAAAAAAAAAAAAAAAAAAAAAAAAAAAAAAAAAAAAAAAAAAAAAAAAAAAAAAAAAAAAAAAAAAAAAAAAAAAAAAAAAAAAAAAAAAAAAAAAAAAAAAAAAAAAAAAAAAAAAAAAAAAAAAAAAAAAAAAAAAAAAAAAAAAAAAAAAAAAAAAAAAAAAAAAAAAAAAAAAAAAAAAAAAAAAAAAAAAAAAAAAAAAAAAAAAAAAAAAAAAAAAAAAAAAAAAAAAAAAAAAAAAAAAAAAAAAAAAAAAAAAAAAAAAAAAAAAAAAAAAAAAAAAAAAAAAAAAAAAAAAAAAAAAAAAAAAAAAAAAAAAAAAAAAAAAAAAAPZYQEA/Rhab2COo2TU8TM+/uIEjANrlNUsPA1IwlGH91xLLI/L+18zaK6nRz7PyhnVlRNjWWKo8sHBBWPKGsq3RB+Y=</c2pa:manifest></metadata><path fill="currentColor" d="M153.614 26.4097C153.157 26.5372 152.762 26.669 152.736 26.6954C152.7 26.7305 152.683 26.9986 152.683 27.5918V28.4355L153.729 28.4487L154.77 28.4575V27.3897C154.77 26.4053 154.761 26.3131 154.691 26.2471C154.577 26.1417 154.542 26.1505 153.614 26.4097ZM155.451 26.2515L155.188 26.3262L155.174 27.4029C155.166 28.3169 155.179 28.5718 155.254 29.0947C155.412 30.1406 155.601 31.0194 155.878 32.0169L156.023 32.5223L156.822 33.3221C157.706 34.2009 158.655 35.0622 159.428 35.6862C160.465 36.5256 161.151 37.3693 161.52 38.2701L161.643 38.5689L161.726 38.402C161.775 38.3097 161.885 38.1515 161.968 38.046L162.122 37.8571L161.907 37.5407C161.625 37.1232 161.015 36.4948 160.439 36.0246C159.578 35.3171 158.967 34.7678 157.947 33.7615L156.932 32.7552L156.818 32.3993C156.633 31.8016 156.409 30.8568 156.234 29.9516C156.071 29.0947 156.071 29.0947 156.053 27.7105C156.036 26.0186 156.062 26.0846 155.451 26.2515ZM152.643 28.9936C152.63 29.0727 152.599 29.2661 152.573 29.4243C152.301 31.0941 151.808 32.8782 151.365 33.7967C151.259 34.012 150.982 34.5085 150.749 34.8953C149.791 36.4816 149.181 37.9274 148.917 39.2237C148.763 39.9927 148.776 41.021 148.943 41.5747C149.009 41.79 149.137 42.1064 149.225 42.2734C149.519 42.8183 150.147 43.4027 150.771 43.706L150.969 43.8026V44.3563C150.969 45.0067 151.031 45.2659 151.193 45.3407C151.285 45.3846 151.316 45.3758 151.395 45.2967C151.483 45.2132 151.483 45.1869 151.439 44.954C151.382 44.6815 151.369 44.0136 151.417 44.0136C151.435 44.0136 151.602 44.0575 151.791 44.1102L152.134 44.2113V44.4838C152.134 45.033 152.279 45.3714 152.481 45.2967C152.604 45.2528 152.617 45.1912 152.586 44.7474L152.56 44.3124L152.863 44.3431C153.03 44.3563 153.241 44.3783 153.333 44.3915L153.496 44.4178V44.7782C153.496 45.1561 153.553 45.2879 153.729 45.2879C153.883 45.2879 153.935 45.1649 153.935 44.787V44.4222L154.102 44.3915C154.19 44.3783 154.34 44.3651 154.432 44.3651H154.594V44.598C154.594 44.7211 154.577 44.888 154.555 44.9583C154.498 45.1693 154.564 45.2967 154.735 45.2791C154.928 45.2616 154.986 45.1253 155.021 44.6507L155.047 44.2772L155.227 44.2289C155.328 44.2069 155.465 44.1674 155.535 44.1454C155.772 44.0663 155.781 44.0751 155.781 44.4178C155.781 44.5936 155.759 44.8265 155.733 44.9364C155.68 45.1737 155.711 45.3187 155.825 45.3538C156.067 45.4285 156.185 45.1297 156.203 44.409C156.207 44.1542 156.225 43.9081 156.242 43.8598C156.493 43.1654 156.787 42.8886 157.525 42.6293C158.141 42.4184 158.145 42.414 158.312 42.0625C158.773 41.0913 158.743 39.6851 158.22 38.1031C157.868 37.0309 157.424 36.0993 156.682 34.8733C155.97 33.7 155.649 32.909 155.276 31.3842C155.166 30.9447 155.012 30.2021 154.933 29.7319L154.788 28.875L153.724 28.8618L152.665 28.853L152.643 28.9936ZM156.466 33.6253C156.51 33.7439 156.66 34.0076 157.112 34.7634C158.057 36.3322 158.738 38.0065 158.962 39.3116C159.134 40.3091 159.099 40.9902 158.831 41.9438C158.804 42.0405 158.835 42.0273 159.147 41.812C159.96 41.2539 160.892 40.1949 161.278 39.3907C161.375 39.1842 161.375 39.1842 161.296 38.8941C161.045 37.9625 160.259 36.8947 159.204 36.051C158.554 35.528 157.719 34.7898 157.051 34.135C156.713 33.8098 156.453 33.5769 156.466 33.6253ZM150.262 34.2669C149.567 34.9304 148.697 35.695 148.113 36.1564C147.194 36.8815 146.531 37.7648 146.219 38.6876C145.867 39.7291 145.938 40.6826 146.443 41.7065C146.957 42.748 147.832 43.4027 149.181 43.7499C149.515 43.8334 150.288 43.9696 150.288 43.9432C150.288 43.9345 150.165 43.8466 150.016 43.7455C148.618 42.8007 148.082 41.1309 148.513 39.0611C148.772 37.7911 149.435 36.2311 150.354 34.7239C150.754 34.0647 151.013 33.5989 150.978 33.5989C150.969 33.5989 150.648 33.8977 150.262 34.2669ZM162.974 37.9537C162.72 37.9933 162.412 38.1647 162.263 38.358C162.201 38.4371 162.043 38.7359 161.92 39.026C161.538 39.896 161.107 40.5552 160.496 41.2012C159.753 41.9921 158.681 42.6821 157.635 43.0468C156.941 43.2885 156.647 43.6576 156.642 44.2772C156.638 44.5629 156.655 44.6376 156.77 44.8397C156.932 45.1385 157.077 45.2616 157.517 45.4681C158.127 45.7625 158.466 45.8284 159.296 45.8284C159.942 45.8328 160.07 45.8196 160.452 45.7142C161.599 45.4066 162.649 44.7386 163.405 43.829C164.552 42.4536 164.97 40.9111 164.592 39.4214C164.31 38.3053 163.792 37.8351 162.974 37.9537ZM164.473 38.1075C164.658 38.3404 164.89 38.859 165.013 39.3116C165.101 39.6324 165.115 39.795 165.119 40.4541C165.119 41.2539 165.097 41.4033 164.89 42.0581C164.433 43.4862 163.33 44.8089 161.968 45.5516C161.581 45.7625 161.621 45.7713 162.14 45.5911C164.205 44.8617 165.752 42.9897 165.976 40.9331C166.059 40.1861 165.923 39.3467 165.62 38.7271C165.374 38.213 165.075 37.9933 164.596 37.9581L164.337 37.9362L164.473 38.1075Z"/></svg>